<svg width="22" height="22" viewBox="0 0 22 22" fill="none" xmlns="http://www.w3.org/2000/svg">
<path d="M10.5417 11.4583V14.6667C10.5417 14.7968 10.5857 14.9056 10.6737 14.993C10.7617 15.0804 10.8708 15.1244 11.0009 15.125C11.1311 15.1256 11.2399 15.0816 11.3273 14.993C11.4146 14.9044 11.4583 14.7956 11.4583 14.6667V11.4583H14.6667C14.7968 11.4583 14.9056 11.4143 14.993 11.3263C15.0804 11.2383 15.1244 11.1292 15.125 10.9991C15.1256 10.8689 15.0816 10.7601 14.993 10.6727C14.9044 10.5854 14.7956 10.5417 14.6667 10.5417H11.4583V7.33333C11.4583 7.20317 11.4143 7.09439 11.3263 7.007C11.2383 6.91961 11.1292 6.87561 10.9991 6.875C10.8689 6.87439 10.7601 6.91839 10.6727 7.007C10.5854 7.09561 10.5417 7.20439 10.5417 7.33333V10.5417H7.33333C7.20317 10.5417 7.09439 10.5857 7.007 10.6737C6.91961 10.7617 6.87561 10.8708 6.875 11.0009C6.87439 11.1311 6.91839 11.2399 7.007 11.3273C7.09561 11.4146 7.20439 11.4583 7.33333 11.4583H10.5417ZM11.0028 19.25C9.86181 19.25 8.78931 19.0337 7.78525 18.601C6.78119 18.1677 5.90761 17.5798 5.1645 16.8373C4.42139 16.0948 3.83319 15.2222 3.39992 14.2193C2.96664 13.2165 2.75 12.1443 2.75 11.0028C2.75 9.8612 2.96664 8.78869 3.39992 7.78525C3.83258 6.78119 4.41956 5.90761 5.16083 5.1645C5.90211 4.42139 6.77508 3.83319 7.77975 3.39992C8.78442 2.96664 9.85692 2.75 10.9972 2.75C12.1376 2.75 13.2101 2.96664 14.2148 3.39992C15.2188 3.83258 16.0924 4.41986 16.8355 5.16175C17.5786 5.90364 18.1668 6.77661 18.6001 7.78067C19.0334 8.78472 19.25 9.85692 19.25 10.9972C19.25 12.1376 19.0337 13.2101 18.601 14.2148C18.1683 15.2194 17.5804 16.093 16.8373 16.8355C16.0942 17.578 15.2216 18.1662 14.2193 18.6001C13.2171 19.034 12.1449 19.2506 11.0028 19.25ZM11 18.3333C13.0472 18.3333 14.7812 17.6229 16.2021 16.2021C17.6229 14.7812 18.3333 13.0472 18.3333 11C18.3333 8.95278 17.6229 7.21875 16.2021 5.79792C14.7812 4.37708 13.0472 3.66667 11 3.66667C8.95278 3.66667 7.21875 4.37708 5.79792 5.79792C4.37708 7.21875 3.66667 8.95278 3.66667 11C3.66667 13.0472 4.37708 14.7812 5.79792 16.2021C7.21875 17.6229 8.95278 18.3333 11 18.3333Z" fill="black"/>
</svg>
