<svg width="20" height="20" viewBox="0 0 20 20" fill="none" xmlns="http://www.w3.org/2000/svg">
<path fill-rule="evenodd" clip-rule="evenodd" d="M10.0002 19.1663C15.0629 19.1663 19.1668 15.0624 19.1668 9.99967C19.1668 4.93692 15.0629 0.833008 10.0002 0.833008C4.93741 0.833008 0.833496 4.93692 0.833496 9.99967C0.833496 15.0624 4.93741 19.1663 10.0002 19.1663ZM10.6877 7.24967C10.6877 7.06734 10.6152 6.89247 10.4863 6.76354C10.3574 6.63461 10.1825 6.56217 10.0002 6.56217C9.81783 6.56217 9.64296 6.63461 9.51403 6.76354C9.3851 6.89247 9.31266 7.06734 9.31266 7.24967V9.31217H7.25016C7.06783 9.31217 6.89296 9.38461 6.76403 9.51354C6.6351 9.64247 6.56266 9.81734 6.56266 9.99967C6.56266 10.182 6.6351 10.3569 6.76403 10.4858C6.89296 10.6147 7.06783 10.6872 7.25016 10.6872H9.31266V12.7497C9.31266 12.932 9.3851 13.1069 9.51403 13.2358C9.64296 13.3647 9.81783 13.4372 10.0002 13.4372C10.1825 13.4372 10.3574 13.3647 10.4863 13.2358C10.6152 13.1069 10.6877 12.932 10.6877 12.7497V10.6872H12.7502C12.9325 10.6872 13.1074 10.6147 13.2363 10.4858C13.3652 10.3569 13.4377 10.182 13.4377 9.99967C13.4377 9.81734 13.3652 9.64247 13.2363 9.51354C13.1074 9.38461 12.9325 9.31217 12.7502 9.31217H10.6877V7.24967Z" fill="white"/>
</svg>
