<svg width="18" height="18" viewBox="0 0 18 18" fill="none" xmlns="http://www.w3.org/2000/svg">
<path d="M8.3125 13.8125V14.5C8.3125 14.6823 8.24007 14.8572 8.11114 14.9861C7.9822 15.1151 7.80734 15.1875 7.625 15.1875H6.25V15.875C6.25 16.2397 6.10513 16.5894 5.84727 16.8473C5.58941 17.1051 5.23967 17.25 4.875 17.25H2.125C1.76033 17.25 1.41059 17.1051 1.15273 16.8473C0.894866 16.5894 0.75 16.2397 0.75 15.875V14.0971C0.750078 13.7325 0.894995 13.3828 1.15287 13.125L6.47275 7.80444C6.14634 6.69659 6.17695 5.5141 6.56026 4.42463C6.94356 3.33516 7.66011 2.394 8.60829 1.73459C9.55647 1.07518 10.6882 0.730985 11.8429 0.750811C12.9977 0.770637 14.1169 1.15348 15.0419 1.84505C15.9669 2.53662 16.6507 3.50182 16.9964 4.60381C17.3421 5.7058 17.3321 6.88864 16.9678 7.98463C16.6036 9.08062 15.9035 10.0341 14.967 10.71C14.0305 11.3858 12.9049 11.7497 11.75 11.75H10.375V13.125C10.375 13.3073 10.3026 13.4822 10.1736 13.6111C10.0447 13.7401 9.86984 13.8125 9.6875 13.8125H8.3125ZM13.125 6.25C13.4897 6.25 13.8394 6.10513 14.0973 5.84727C14.3551 5.58941 14.5 5.23967 14.5 4.875C14.5 4.51033 14.3551 4.16059 14.0973 3.90273C13.8394 3.64487 13.4897 3.5 13.125 3.5C12.7603 3.5 12.4106 3.64487 12.1527 3.90273C11.8949 4.16059 11.75 4.51033 11.75 4.875C11.75 5.23967 11.8949 5.58941 12.1527 5.84727C12.4106 6.10513 12.7603 6.25 13.125 6.25Z" fill="black"/>
</svg>
