<svg width="27" height="18" viewBox="0 0 27 18" fill="none" xmlns="http://www.w3.org/2000/svg">
<path d="M24.5527 7.5416L18.3694 1.35827C18.208 1.19688 18.1273 1.02334 18.1273 0.837645C18.1273 0.65195 18.208 0.478409 18.3694 0.31702C18.5298 0.161465 18.7077 0.0885477 18.9031 0.09827C19.0985 0.107992 19.2643 0.180909 19.4004 0.31702L25.801 6.71765C25.9274 6.84404 26.0164 6.97383 26.0679 7.10702C26.1194 7.24021 26.1452 7.38508 26.1452 7.5416C26.1452 7.69813 26.1194 7.84299 26.0679 7.97619C26.0164 8.10938 25.9274 8.23966 25.801 8.36702L19.4004 14.7662C19.24 14.9266 19.0679 15.0054 18.8842 15.0024C18.7014 15.0005 18.5298 14.9217 18.3694 14.7662C18.208 14.6058 18.1302 14.4293 18.136 14.2368C18.1438 14.0433 18.2187 13.8756 18.3606 13.7337L24.5527 7.5416ZM17.821 8.27077H6.9375C5.53556 8.27077 4.33437 8.77098 3.33396 9.7714C2.33354 10.7718 1.83333 11.973 1.83333 13.3749V17.0208C1.83333 17.2288 1.76382 17.4024 1.62479 17.5414C1.48576 17.6804 1.31222 17.7499 1.10417 17.7499C0.896111 17.7499 0.722569 17.6804 0.583542 17.5414C0.444514 17.4024 0.375 17.2288 0.375 17.0208V13.3749C0.375 11.5627 1.01569 10.0159 2.29708 8.73452C3.57847 7.45313 5.12528 6.81244 6.9375 6.81244H17.8225L12.3669 1.35827C12.2065 1.19688 12.1262 1.02334 12.1262 0.837645C12.1262 0.65195 12.2065 0.478409 12.3669 0.31702C12.5283 0.161465 12.7067 0.0885477 12.9021 0.09827C13.0975 0.107992 13.2628 0.180909 13.3979 0.31702L19.8 6.71765C19.9264 6.84404 20.0153 6.97383 20.0669 7.10702C20.1184 7.24021 20.1442 7.38508 20.1442 7.5416C20.1442 7.69813 20.1184 7.84299 20.0669 7.97619C20.0153 8.10938 19.9259 8.23966 19.7985 8.36702L13.3994 14.7662C13.239 14.9266 13.0669 15.0054 12.8831 15.0024C12.7003 15.0005 12.5283 14.9217 12.3669 14.7662C12.2065 14.6058 12.1297 14.4293 12.1365 14.2368C12.1423 14.0433 12.2162 13.8756 12.3581 13.7337L17.821 8.27077Z" fill="white"/>
</svg>
