<svg width="22" height="22" viewBox="0 0 22 22" fill="none" xmlns="http://www.w3.org/2000/svg">
<path d="M18.3613 8.7363L11.4863 15.6113C11.4225 15.6752 11.3466 15.7259 11.2632 15.7605C11.1797 15.7951 11.0902 15.8129 10.9999 15.8129C10.9095 15.8129 10.8201 15.7951 10.7366 15.7605C10.6532 15.7259 10.5773 15.6752 10.5135 15.6113L3.63849 8.7363C3.50948 8.6073 3.43701 8.43233 3.43701 8.24989C3.43701 8.06746 3.50948 7.89249 3.63849 7.76349C3.76749 7.63448 3.94246 7.56201 4.12489 7.56201C4.30733 7.56201 4.4823 7.63448 4.6113 7.76349L10.9999 14.1529L17.3885 7.76349C17.4524 7.69961 17.5282 7.64894 17.6117 7.61437C17.6951 7.5798 17.7846 7.56201 17.8749 7.56201C17.9652 7.56201 18.0547 7.5798 18.1381 7.61437C18.2216 7.64894 18.2974 7.69961 18.3613 7.76349C18.4252 7.82736 18.4758 7.90319 18.5104 7.98665C18.545 8.07011 18.5628 8.15956 18.5628 8.24989C18.5628 8.34023 18.545 8.42968 18.5104 8.51314C18.4758 8.59659 18.4252 8.67242 18.3613 8.7363Z" fill="#878787"/>
</svg>
