<svg width="30" height="30" viewBox="0 0 30 30" fill="none" xmlns="http://www.w3.org/2000/svg">
<path d="M22.4375 17.5775L26.4013 13.59C26.5229 13.4675 26.6667 13.4062 26.8325 13.4062C26.9967 13.4062 27.1479 13.4671 27.2863 13.5887C27.4246 13.7104 27.4892 13.8591 27.48 14.035C27.4725 14.21 27.4079 14.3587 27.2863 14.4812L23.1437 18.6225C22.9421 18.825 22.7013 18.9262 22.4212 18.9262C22.1413 18.9262 21.9004 18.825 21.6987 18.6225L20.2137 17.13C20.0921 17.0083 20.0275 16.8646 20.02 16.6987C20.0125 16.5329 20.0771 16.3816 20.2137 16.245C20.3354 16.1233 20.4829 16.0637 20.6562 16.0662C20.8296 16.0687 20.9771 16.1283 21.0987 16.245L22.4375 17.5775ZM12.305 23.265C10.405 21.5258 8.82208 20.0287 7.55625 18.7737C6.29042 17.5187 5.285 16.4025 4.54 15.425C3.79333 14.4475 3.26667 13.5533 2.96 12.7425C2.65333 11.9316 2.5 11.1112 2.5 10.2812C2.5 8.69123 3.04 7.35748 4.12 6.27998C5.2 5.20248 6.535 4.66373 8.125 4.66373C9.225 4.66373 10.2563 4.94498 11.2188 5.50748C12.1813 6.06998 13.025 6.88789 13.75 7.96123C14.475 6.88789 15.3187 6.06998 16.2812 5.50748C17.2437 4.94498 18.275 4.66331 19.375 4.66248C20.8225 4.66248 22.0508 5.11248 23.06 6.01248C24.07 6.91248 24.6867 8.03289 24.91 9.37373H23.625C23.4267 8.34873 22.9308 7.51539 22.1375 6.87373C21.3442 6.23206 20.4233 5.91123 19.375 5.91123C18.3608 5.91123 17.44 6.19789 16.6125 6.77123C15.785 7.34456 14.9987 8.21248 14.2537 9.37498H13.2487C12.4904 8.19748 11.6958 7.32623 10.865 6.76123C10.0342 6.19623 9.12083 5.91331 8.125 5.91248C6.90583 5.91248 5.87167 6.32789 5.0225 7.15873C4.17417 7.99039 3.75 9.03123 3.75 10.2812C3.75 10.9846 3.89583 11.6987 4.1875 12.4237C4.47917 13.1487 5 13.9821 5.75 14.9237C6.5 15.8654 7.52083 16.9729 8.8125 18.2462C10.1042 19.5196 11.75 21.0625 13.75 22.875C14.3883 22.3 15.0158 21.7316 15.6325 21.17C16.2492 20.61 16.8004 20.0975 17.2863 19.6325L17.4237 19.77L17.7313 20.0787L18.0412 20.3875L18.1788 20.525C17.6871 20.9891 17.1396 21.4925 16.5363 22.035C15.9329 22.5775 15.32 23.1362 14.6975 23.7112L14.4263 23.9612C14.2446 24.1421 14.0192 24.2325 13.75 24.2325C13.4808 24.2325 13.2558 24.1421 13.075 23.9612L12.305 23.265Z" fill="white"/>
</svg>
