<svg width="30" height="30" viewBox="0 0 30 30" fill="none" xmlns="http://www.w3.org/2000/svg">
<path d="M2.5 15C2.5 9.69625 2.5 7.045 4.33 5.3975C6.1625 3.75 9.1075 3.75 15 3.75C20.8925 3.75 23.8387 3.75 25.6687 5.3975C27.4987 7.045 27.5 9.6975 27.5 15C27.5 20.3025 27.5 22.955 25.6687 24.6025C23.84 26.25 20.8925 26.25 15 26.25C9.1075 26.25 6.16125 26.25 4.33 24.6025C2.49875 22.955 2.5 20.3025 2.5 15Z" stroke="white" stroke-width="1.5625" stroke-linecap="round" stroke-linejoin="round"/>
<path d="M7.5 20H12.5M17.5 10H22.5M17.5 15H22.5M17.5 20H22.5M10.5 10H9.5C8.5575 10 8.08625 10 7.7925 10.2925C7.5 10.5875 7.5 11.0575 7.5 12V13C7.5 13.9425 7.5 14.4137 7.7925 14.7075C8.0875 15 8.5575 15 9.5 15H10.5C11.4425 15 11.9137 15 12.2075 14.7075C12.5 14.4125 12.5 13.9425 12.5 13V12C12.5 11.0575 12.5 10.5863 12.2075 10.2925C11.9125 10 11.4425 10 10.5 10Z" stroke="white" stroke-width="1.5625" stroke-linecap="round" stroke-linejoin="round"/>
</svg>
