<svg width="22" height="22" viewBox="0 0 22 22" fill="none" xmlns="http://www.w3.org/2000/svg">
<path d="M7.65606 18.5548C8.05494 19.0592 8.56323 19.4664 9.14254 19.7456C9.72184 20.0247 10.357 20.1686 11.0001 20.1663C11.6431 20.1686 12.2783 20.0247 12.8576 19.7456C13.4369 19.4664 13.9452 19.0592 14.3441 18.5548C12.1248 18.8552 9.87527 18.8552 7.65606 18.5548ZM17.1876 8.24967V8.89501C17.1876 9.66959 17.4076 10.4268 17.8219 11.0712L18.8376 12.6506C19.7643 14.0934 19.0566 16.0542 17.4442 16.5098C13.231 17.7029 8.76915 17.7029 4.55589 16.5098C2.94347 16.0542 2.23581 14.0934 3.16256 12.6506L4.17822 11.0712C4.59367 10.4214 4.81413 9.66621 4.81347 8.89501V8.24967C4.81347 4.70584 7.58364 1.83301 11.0001 1.83301C14.4165 1.83301 17.1876 4.70584 17.1876 8.24967Z" fill="#878787"/>
</svg>
