<svg width="35" height="35" viewBox="0 0 35 35" fill="none" xmlns="http://www.w3.org/2000/svg">
<g clip-path="url(#clip0_521_53)">
<path d="M34.4765 21.732C32.1383 31.112 22.6349 36.814 13.2683 34.4757C3.88799 32.1375 -1.814 22.6345 0.524298 13.268C2.86246 3.88799 12.3521 -1.814 21.7324 0.524299C31.099 2.84879 36.8148 12.3518 34.4765 21.732Z" fill="url(#paint0_linear_521_53)"/>
<path d="M25.8325 15.3193C26.1743 12.9951 24.4106 11.7373 21.977 10.9033L22.77 7.74512L20.856 7.2666L20.0903 10.3428C19.5845 10.2197 19.0649 10.0967 18.5454 9.9873L19.311 6.89746L17.397 6.41895L16.6177 9.56348C16.1938 9.46777 15.7837 9.37207 15.3872 9.27637V9.2627L12.7349 8.60645L12.229 10.6572C12.229 10.6572 13.6509 10.9854 13.6235 10.999C14.4028 11.1904 14.5395 11.71 14.5122 12.1201L13.6099 15.7158C13.6646 15.7295 13.7329 15.7432 13.8149 15.7842C13.7466 15.7705 13.6782 15.7568 13.6099 15.7295L12.3521 20.7607C12.2563 20.9932 12.0103 21.3486 11.4771 21.2119C11.4907 21.2393 10.0825 20.8701 10.0825 20.8701L9.12549 23.0713L11.6274 23.7002C12.0923 23.8232 12.5435 23.9326 12.9946 24.0557L12.2017 27.2412L14.1157 27.7197L14.9087 24.5615C15.4282 24.6982 15.9478 24.835 16.4399 24.958L15.6606 28.1025L17.5747 28.5811L18.3677 25.3955C21.6489 26.0107 24.1099 25.7646 25.1353 22.7979C25.9692 20.4189 25.0942 19.0381 23.3716 18.1357C24.6431 17.8486 25.5864 17.0146 25.8325 15.3193ZM21.4438 21.4717C20.856 23.8506 16.8364 22.5654 15.5376 22.2373L16.5903 18.0127C17.8892 18.3408 22.0728 18.9834 21.4438 21.4717ZM22.0454 15.2783C21.4985 17.4521 18.1626 16.3447 17.0825 16.0713L18.0396 12.2432C19.1196 12.5166 22.606 13.0225 22.0454 15.2783Z" fill="white"/>
</g>
<defs>
<linearGradient id="paint0_linear_521_53" x1="1749.05" y1="-0.839999" x2="1749.05" y2="3499.65" gradientUnits="userSpaceOnUse">
<stop stop-color="#F9AA4B"/>
<stop offset="1" stop-color="#F7931A"/>
</linearGradient>
<clipPath id="clip0_521_53">
<rect width="35" height="35" fill="white"/>
</clipPath>
</defs>
</svg>
