<svg width="18" height="18" viewBox="0 0 18 18" fill="none" xmlns="http://www.w3.org/2000/svg">
<path d="M17.2397 13.7334C17.0865 14.8979 16.5146 15.9667 15.6309 16.7404C14.7471 17.514 13.612 17.9396 12.4375 17.9374C5.61407 17.9374 0.0625078 12.3859 0.0625078 5.56245C0.0604023 4.38793 0.485911 3.25281 1.25956 2.36909C2.03321 1.48537 3.10209 0.913493 4.26657 0.760261C4.56104 0.724305 4.85924 0.784548 5.11665 0.931997C5.37407 1.07945 5.57689 1.30619 5.69485 1.57839L7.50985 5.63034C7.50951 5.63377 7.50951 5.63722 7.50985 5.64065C7.60016 5.84901 7.63746 6.07649 7.61841 6.30278C7.59937 6.52907 7.52457 6.74712 7.40071 6.93745C7.38524 6.96065 7.36891 6.98214 7.35173 7.00362L5.56251 9.12456C6.20618 10.4325 7.57431 11.7886 8.89946 12.434L10.9912 10.6542C11.0117 10.637 11.0332 10.6209 11.0556 10.6061C11.2459 10.4791 11.4649 10.4016 11.6926 10.3806C11.9204 10.3596 12.1499 10.3958 12.3602 10.4858L12.3705 10.491L16.4181 12.3051C16.691 12.4225 16.9185 12.6251 17.0665 12.8826C17.2146 13.14 17.2754 13.4385 17.2397 13.7334ZM10.375 5.56245H12.4375V7.62495C12.4375 7.80728 12.5099 7.98215 12.6389 8.11108C12.7678 8.24002 12.9427 8.31245 13.125 8.31245C13.3073 8.31245 13.4822 8.24002 13.6111 8.11108C13.7401 7.98215 13.8125 7.80728 13.8125 7.62495V5.56245H15.875C16.0573 5.56245 16.2322 5.49002 16.3611 5.36108C16.4901 5.23215 16.5625 5.05728 16.5625 4.87495C16.5625 4.69261 16.4901 4.51774 16.3611 4.38881C16.2322 4.25988 16.0573 4.18745 15.875 4.18745H13.8125V2.12495C13.8125 1.94261 13.7401 1.76774 13.6111 1.63881C13.4822 1.50988 13.3073 1.43745 13.125 1.43745C12.9427 1.43745 12.7678 1.50988 12.6389 1.63881C12.5099 1.76774 12.4375 1.94261 12.4375 2.12495V4.18745H10.375C10.1927 4.18745 10.0178 4.25988 9.88887 4.38881C9.75994 4.51774 9.68751 4.69261 9.68751 4.87495C9.68751 5.05728 9.75994 5.23215 9.88887 5.36108C10.0178 5.49002 10.1927 5.56245 10.375 5.56245Z" fill="black"/>
</svg>
