<svg width="21" height="21" viewBox="0 0 21 21" fill="none" xmlns="http://www.w3.org/2000/svg">
<path d="M3.2085 8.20834H17.7918M6.63433 4.45834V2.79167M14.3427 4.45834V2.79167M14.8752 4.45834H6.12516C5.35161 4.45834 4.60975 4.76563 4.06277 5.31261C3.51579 5.85959 3.2085 6.60146 3.2085 7.375V15.2917C3.2085 16.0652 3.51579 16.8071 4.06277 17.3541C4.60975 17.901 5.35161 18.2083 6.12516 18.2083H14.8752C15.6487 18.2083 16.3906 17.901 16.9376 17.3541C17.4845 16.8071 17.7918 16.0652 17.7918 15.2917V7.375C17.7918 6.60146 17.4845 5.85959 16.9376 5.31261C16.3906 4.76563 15.6487 4.45834 14.8752 4.45834Z" stroke="#878787" stroke-width="1.5625" stroke-linecap="round" stroke-linejoin="round"/>
</svg>
