<svg width="50" height="50" viewBox="0 0 50 50" fill="none" xmlns="http://www.w3.org/2000/svg">
<rect width="50" height="50" rx="25" fill="#FA5A15"/>
<path d="M27.7502 25.9167H22.2502M25.0002 23.1667V28.6667M31.4168 23.1667H30.5002M15.8335 26.2504C15.8335 23.4408 15.8335 22.0365 16.5201 21.0281C16.8185 20.59 17.2004 20.2149 17.6439 19.9245C18.3039 19.4909 19.1307 19.336 20.3967 19.281C21.0007 19.281 21.5205 18.8318 21.6387 18.2497C21.7291 17.8233 21.9639 17.4412 22.3035 17.168C22.643 16.8948 23.0665 16.7471 23.5023 16.75H26.498C27.4037 16.75 28.1837 17.378 28.3616 18.2497C28.4798 18.8318 28.9996 19.281 29.6037 19.281C30.8687 19.336 31.6955 19.4918 32.3564 19.9245C32.801 20.216 33.1832 20.5909 33.4802 21.0281C34.1668 22.0365 34.1668 23.4408 34.1668 26.2504C34.1668 29.06 34.1668 30.4634 33.4802 31.4726C33.1818 31.9108 32.7999 32.2858 32.3564 32.5763C31.3288 33.25 29.8979 33.25 27.037 33.25H22.9633C20.1024 33.25 18.6715 33.25 17.6439 32.5763C17.2007 32.2855 16.8191 31.9101 16.521 31.4717C16.3218 31.1751 16.1752 30.8464 16.0874 30.5" stroke="white" stroke-width="1.5625" stroke-linecap="round"/>
</svg>
