<svg width="25" height="25" viewBox="0 0 25 25" fill="none" xmlns="http://www.w3.org/2000/svg">
<path d="M8.75 16.9875L12.5 13.2375L16.25 16.9875L16.9875 16.25L13.2375 12.5L16.9875 8.75L16.25 8.0125L12.5 11.7625L8.75 8.0125L8.0125 8.75L11.7625 12.5L8.0125 16.25L8.75 16.9875ZM12.5031 21.875C11.2073 21.875 9.98854 21.6292 8.84687 21.1375C7.7059 20.6451 6.71319 19.9771 5.86875 19.1333C5.02431 18.2896 4.3559 17.2979 3.86354 16.1583C3.37118 15.0187 3.125 13.8003 3.125 12.5031C3.125 11.2059 3.37118 9.98715 3.86354 8.84687C4.35521 7.7059 5.02222 6.71319 5.86458 5.86875C6.70694 5.02431 7.69896 4.3559 8.84063 3.86354C9.98229 3.37118 11.201 3.125 12.4969 3.125C13.7927 3.125 15.0115 3.37118 16.1531 3.86354C17.2941 4.35521 18.2868 5.02257 19.1312 5.86562C19.9757 6.70868 20.6441 7.70069 21.1365 8.84167C21.6288 9.98264 21.875 11.201 21.875 12.4969C21.875 13.7927 21.6292 15.0115 21.1375 16.1531C20.6458 17.2948 19.9778 18.2875 19.1333 19.1312C18.2889 19.975 17.2972 20.6434 16.1583 21.1365C15.0194 21.6295 13.801 21.8757 12.5031 21.875ZM12.5 20.8333C14.8264 20.8333 16.7969 20.026 18.4115 18.4115C20.026 16.7969 20.8333 14.8264 20.8333 12.5C20.8333 10.1736 20.026 8.20312 18.4115 6.58854C16.7969 4.97396 14.8264 4.16667 12.5 4.16667C10.1736 4.16667 8.20312 4.97396 6.58854 6.58854C4.97396 8.20312 4.16667 10.1736 4.16667 12.5C4.16667 14.8264 4.97396 16.7969 6.58854 18.4115C8.20312 20.026 10.1736 20.8333 12.5 20.8333Z" fill="#FA5A15"/>
</svg>
