<svg width="14" height="14" viewBox="0 0 14 14" fill="none" xmlns="http://www.w3.org/2000/svg">
<path d="M6.875 5.625V3.75H5V2.5H6.875V0.625H8.125V2.5H10V3.75H8.125V5.625H6.875ZM4.375 13.75C4.03125 13.75 3.73708 13.6277 3.4925 13.3831C3.24792 13.1385 3.12542 12.8442 3.125 12.5C3.12458 12.1558 3.24708 11.8617 3.4925 11.6175C3.73792 11.3733 4.03208 11.2508 4.375 11.25C4.71792 11.2492 5.01229 11.3717 5.25813 11.6175C5.50396 11.8633 5.62625 12.1575 5.625 12.5C5.62375 12.8425 5.50146 13.1369 5.25813 13.3831C5.01479 13.6294 4.72042 13.7517 4.375 13.75ZM10.625 13.75C10.2812 13.75 9.98708 13.6277 9.7425 13.3831C9.49792 13.1385 9.37542 12.8442 9.375 12.5C9.37458 12.1558 9.49708 11.8617 9.7425 11.6175C9.98792 11.3733 10.2821 11.2508 10.625 11.25C10.9679 11.2492 11.2623 11.3717 11.5081 11.6175C11.754 11.8633 11.8763 12.1575 11.875 12.5C11.8737 12.8425 11.7515 13.1369 11.5081 13.3831C11.2648 13.6294 10.9704 13.7517 10.625 13.75ZM0.625 2.5V1.25H2.67188L5.32812 6.875H9.70312L12.1406 2.5H13.5625L10.8125 7.46875C10.6979 7.67708 10.5444 7.83854 10.3519 7.95312C10.1594 8.06771 9.94833 8.125 9.71875 8.125H5.0625L4.375 9.375H11.875V10.625H4.375C3.90625 10.625 3.54938 10.4219 3.30438 10.0156C3.05938 9.60937 3.05167 9.19792 3.28125 8.78125L4.125 7.25L1.875 2.5H0.625Z" fill="white"/>
</svg>
