<svg width="25" height="25" viewBox="0 0 25 25" fill="none" xmlns="http://www.w3.org/2000/svg">
<path d="M15.875 2.0835H11.8187C9.98125 2.0835 8.525 2.0835 7.38646 2.23766C6.21354 2.396 5.26458 2.72933 4.51667 3.48037C3.76771 4.23141 3.43542 5.18454 3.27813 6.36162C3.125 7.50537 3.125 8.96683 3.125 10.8116V16.8929C3.125 18.4637 4.08333 19.8095 5.44479 20.3741C5.375 19.4262 5.375 18.0981 5.375 16.9918V11.7731C5.375 10.4387 5.375 9.28766 5.49792 8.36683C5.63021 7.37933 5.92813 6.4335 6.69271 5.66579C7.45729 4.89808 8.4 4.59912 9.38333 4.46579C10.3 4.34287 11.4458 4.34287 12.776 4.34287H15.974C17.3031 4.34287 18.4469 4.34287 19.3646 4.46579C19.0897 3.76401 18.6097 3.16135 17.9872 2.7364C17.3648 2.31144 16.6287 2.08392 15.875 2.0835Z" fill="#0A5266"/>
<path d="M6.875 11.8721C6.875 9.03252 6.875 7.61273 7.75417 6.73044C8.63229 5.84814 10.0458 5.84814 12.875 5.84814H15.875C18.7031 5.84814 20.1177 5.84814 20.9969 6.73044C21.876 7.61273 21.875 9.03252 21.875 11.8721V16.8929C21.875 19.7325 21.875 21.1523 20.9969 22.0346C20.1177 22.9169 18.7031 22.9169 15.875 22.9169H12.875C10.0469 22.9169 8.63229 22.9169 7.75417 22.0346C6.875 21.1523 6.875 19.7325 6.875 16.8929V11.8721Z" fill="#0A5266"/>
</svg>
