<svg version="1.1" id="Capa_1" xmlns="http://www.w3.org/2000/svg" xmlns:xlink="http://www.w3.org/1999/xlink" viewBox="-7.8 -7.8 75.60 75.60" xml:space="preserve" width="256px" height="256px" fill="#000000" stroke="#000000" stroke-width="0.0006000000000000001"><g id="SVGRepo_bgCarrier" stroke-width="0"></g><g id="SVGRepo_tracerCarrier" stroke-linecap="round" stroke-linejoin="round" stroke="#CCCCCC" stroke-width="0.48"></g><g id="SVGRepo_iconCarrier"> <rect x="16.5" y="31" style="fill:#871B1B;" width="10" height="6"></rect> <path style="fill:#424A60;" d="M3.5,0c-0.552,0-1,0.447-1,1v3v55c0,0.553,0.448,1,1,1s1-0.447,1-1V4V1C4.5,0.447,4.052,0,3.5,0z"></path> <rect x="4.5" y="4" style="fill:#ffd8d6;" width="22" height="29"></rect> <path style="fill:#fec4be;" d="M26.5,9v24h-6c-2.209,0-4,1.791-4,4c0,2.209,1.791,4,4,4h4h33l-11-16l11-16H26.5z"></path> <path style="fill:#dbaba9;" d="M16.5,37c0,2.209,1.791,4,4,4h4h2v-8h-6C18.291,33,16.5,34.791,16.5,37z"></path> </g></svg>