<svg width="23" height="23" viewBox="0 0 23 23" fill="none" xmlns="http://www.w3.org/2000/svg">
<path d="M3.25 19.75V15.8542L15.35 3.77708C15.5333 3.60903 15.7359 3.47917 15.9578 3.3875C16.1796 3.29583 16.4124 3.25 16.6562 3.25C16.9001 3.25 17.1369 3.29583 17.3667 3.3875C17.5964 3.47917 17.7951 3.61667 17.9625 3.8L19.2229 5.08333C19.4062 5.25139 19.5401 5.45 19.6244 5.67917C19.7088 5.90833 19.7506 6.1375 19.75 6.36667C19.75 6.61111 19.7081 6.84425 19.6244 7.06608C19.5407 7.28792 19.4069 7.49019 19.2229 7.67292L7.14583 19.75H3.25ZM16.6333 7.65L17.9167 6.36667L16.6333 5.08333L15.35 6.36667L16.6333 7.65Z" fill="#777777"/>
</svg>
