<svg width="26" height="26" viewBox="0 0 26 26" fill="none" xmlns="http://www.w3.org/2000/svg">
<path d="M10.6562 13C10.6562 12.3784 10.9032 11.7823 11.3427 11.3427C11.7823 10.9032 12.3784 10.6562 13 10.6562C13.6216 10.6562 14.2177 10.9032 14.6573 11.3427C15.0968 11.7823 15.3438 12.3784 15.3438 13C15.3438 13.6216 15.0968 14.2177 14.6573 14.6573C14.2177 15.0968 13.6216 15.3438 13 15.3438C12.3784 15.3438 11.7823 15.0968 11.3427 14.6573C10.9032 14.2177 10.6562 13.6216 10.6562 13Z" fill="white"/>
<path fill-rule="evenodd" clip-rule="evenodd" d="M2.58301 12.9998C2.58301 14.7082 3.02572 15.2821 3.91113 16.4332C5.67884 18.729 8.64342 21.3332 12.9997 21.3332C17.3559 21.3332 20.3205 18.729 22.0882 16.4332C22.9736 15.2832 23.4163 14.7071 23.4163 12.9998C23.4163 11.2915 22.9736 10.7175 22.0882 9.5665C20.3205 7.27067 17.3559 4.6665 12.9997 4.6665C8.64342 4.6665 5.67884 7.27067 3.91113 9.5665C3.02572 10.7186 2.58301 11.2925 2.58301 12.9998ZM12.9997 9.09359C11.9637 9.09359 10.9701 9.50514 10.2375 10.2377C9.50497 10.9703 9.09342 11.9638 9.09342 12.9998C9.09342 14.0358 9.50497 15.0294 10.2375 15.762C10.9701 16.4945 11.9637 16.9061 12.9997 16.9061C14.0357 16.9061 15.0292 16.4945 15.7618 15.762C16.4944 15.0294 16.9059 14.0358 16.9059 12.9998C16.9059 11.9638 16.4944 10.9703 15.7618 10.2377C15.0292 9.50514 14.0357 9.09359 12.9997 9.09359Z" fill="white"/>
</svg>
