<svg width="35" height="36" viewBox="0 0 35 36" fill="none" xmlns="http://www.w3.org/2000/svg">
<g clip-path="url(#clip0_246_465)">
<path d="M34.1827 18.3274C34.1827 16.8935 34.0664 15.8471 33.8146 14.762H17.4404V21.234H27.0517C26.858 22.8424 25.8116 25.2646 23.4862 26.8923L23.4536 27.1089L28.6308 31.1197L28.9895 31.1555C32.2836 28.1131 34.1827 23.6369 34.1827 18.3274Z" fill="#4285F4"/>
<path d="M17.4405 35.3798C22.1492 35.3798 26.1022 33.8295 28.9896 31.1555L23.4863 26.8923C22.0136 27.9193 20.0371 28.6363 17.4405 28.6363C12.8287 28.6363 8.91441 25.5941 7.51908 21.3892L7.31456 21.4065L1.93124 25.5727L1.86084 25.7684C4.7287 31.4654 10.6195 35.3798 17.4405 35.3798Z" fill="#34A853"/>
<path d="M7.51943 21.3891C7.15126 20.3039 6.93819 19.1412 6.93819 17.9398C6.93819 16.7384 7.15126 15.5757 7.50006 14.4906L7.49031 14.2595L2.03953 10.0264L1.86119 10.1112C0.679202 12.4753 0.000976562 15.1301 0.000976562 17.9398C0.000976562 20.7496 0.679202 23.4042 1.86119 25.7684L7.51943 21.3891Z" fill="#FBBC05"/>
<path d="M17.4405 7.24338C20.7153 7.24338 22.9243 8.65794 24.1839 9.84006L29.1058 5.03437C26.083 2.22462 22.1492 0.5 17.4405 0.5C10.6195 0.5 4.7287 4.41426 1.86084 10.1112L7.49971 14.4907C8.91441 10.2857 12.8287 7.24338 17.4405 7.24338Z" fill="#EB4335"/>
</g>
<defs>
<clipPath id="clip0_246_465">
<rect width="34.2" height="35" fill="white" transform="translate(0 0.5)"/>
</clipPath>
</defs>
</svg>
