<svg width="20" height="20" viewBox="0 0 20 20" fill="none" xmlns="http://www.w3.org/2000/svg">
<path d="M9.95433 15.5C10.2752 15.5 10.5465 15.3891 10.7683 15.1672C10.9902 14.9454 11.1008 14.6744 11.1002 14.3542C11.0996 14.0339 10.9889 13.7626 10.7683 13.5402C10.5477 13.3177 10.2764 13.2071 9.95433 13.2083C9.63227 13.2095 9.36125 13.3205 9.14125 13.5411C8.92125 13.7617 8.81033 14.0327 8.8085 14.3542C8.80666 14.6756 8.91758 14.9469 9.14125 15.1682C9.36491 15.3894 9.63594 15.5 9.95433 15.5ZM9.12933 11.9708H10.8252C10.8252 11.4667 10.8826 11.0694 10.9975 10.7792C11.1124 10.4889 11.4369 10.0917 11.971 9.58748C12.3682 9.19026 12.6814 8.81198 12.9106 8.45265C13.1397 8.09332 13.2543 7.66187 13.2543 7.15832C13.2543 6.30276 12.9411 5.64582 12.3147 5.18748C11.6884 4.72915 10.9474 4.49998 10.0918 4.49998C9.221 4.49998 8.51455 4.72915 7.9725 5.18748C7.43044 5.64582 7.05216 6.19582 6.83766 6.83748L8.35016 7.43332C8.42655 7.15832 8.59858 6.8604 8.86625 6.53957C9.13391 6.21873 9.54244 6.05832 10.0918 6.05832C10.5807 6.05832 10.9474 6.19215 11.1918 6.45982C11.4363 6.72748 11.5585 7.02143 11.5585 7.34165C11.5585 7.64721 11.4668 7.93382 11.2835 8.20148C11.1002 8.46915 10.871 8.71726 10.596 8.94582C9.92377 9.54165 9.51128 9.99234 9.3585 10.2979C9.20572 10.6035 9.12933 11.1611 9.12933 11.9708ZM10.0002 19.1667C8.73211 19.1667 7.54044 18.9262 6.42516 18.4452C5.30989 17.9643 4.33975 17.311 3.51475 16.4854C2.68975 15.6598 2.03678 14.6897 1.55583 13.575C1.07489 12.4603 0.834108 11.2687 0.833497 9.99998C0.832886 8.73132 1.07366 7.53965 1.55583 6.42498C2.038 5.31032 2.69097 4.34018 3.51475 3.51457C4.33853 2.68896 5.30866 2.03598 6.42516 1.55565C7.54166 1.07532 8.73333 0.83454 10.0002 0.833318C11.267 0.832095 12.4587 1.07287 13.5752 1.55565C14.6917 2.03843 15.6618 2.6914 16.4856 3.51457C17.3094 4.33773 17.9626 5.30787 18.4454 6.42498C18.9282 7.5421 19.1687 8.73376 19.1668 9.99998C19.165 11.2662 18.9242 12.4579 18.4445 13.575C17.9648 14.6921 17.3118 15.6622 16.4856 16.4854C15.6594 17.3086 14.6892 17.9618 13.5752 18.4452C12.4611 18.9286 11.2694 19.1691 10.0002 19.1667Z" fill="black"/>
</svg>
