<svg width="18" height="18" viewBox="0 0 18 18" fill="none" xmlns="http://www.w3.org/2000/svg">
<path d="M1.66667 9.91667H7.16667C7.67083 9.91667 8.08333 9.50417 8.08333 9V1.66667C8.08333 1.1625 7.67083 0.75 7.16667 0.75H1.66667C1.1625 0.75 0.75 1.1625 0.75 1.66667V9C0.75 9.50417 1.1625 9.91667 1.66667 9.91667ZM1.66667 17.25H7.16667C7.67083 17.25 8.08333 16.8375 8.08333 16.3333V12.6667C8.08333 12.1625 7.67083 11.75 7.16667 11.75H1.66667C1.1625 11.75 0.75 12.1625 0.75 12.6667V16.3333C0.75 16.8375 1.1625 17.25 1.66667 17.25ZM10.8333 17.25H16.3333C16.8375 17.25 17.25 16.8375 17.25 16.3333V9C17.25 8.49583 16.8375 8.08333 16.3333 8.08333H10.8333C10.3292 8.08333 9.91667 8.49583 9.91667 9V16.3333C9.91667 16.8375 10.3292 17.25 10.8333 17.25ZM9.91667 1.66667V5.33333C9.91667 5.8375 10.3292 6.25 10.8333 6.25H16.3333C16.8375 6.25 17.25 5.8375 17.25 5.33333V1.66667C17.25 1.1625 16.8375 0.75 16.3333 0.75H10.8333C10.3292 0.75 9.91667 1.1625 9.91667 1.66667Z" fill="black"/>
</svg>
