<svg width="22" height="22" viewBox="0 0 22 22" fill="none" xmlns="http://www.w3.org/2000/svg">
<path d="M5.5 3.66659V6.57242C5.5 7.05825 5.6925 7.52575 6.04083 7.87409L9.16667 10.9999L6.03167 14.1349C5.6925 14.4833 5.5 14.9508 5.5 15.4366V18.3333C5.5 19.3416 6.325 20.1666 7.33333 20.1666H14.6667C15.675 20.1666 16.5 19.3416 16.5 18.3333V15.4366C16.5 14.9508 16.3075 14.4833 15.9683 14.1441L12.8333 10.9999L15.9592 7.88325C16.3075 7.53492 16.5 7.06742 16.5 6.58159V3.66659C16.5 2.65825 15.675 1.83325 14.6667 1.83325H7.33333C6.325 1.83325 5.5 2.65825 5.5 3.66659Z" fill="#FA5A15"/>
</svg>
