<svg width="22" height="22" viewBox="0 0 22 22" fill="none" xmlns="http://www.w3.org/2000/svg">
<path d="M10.9998 1.83301C12.2154 1.83301 13.3812 2.31589 14.2407 3.17544C15.1003 4.03498 15.5832 5.20077 15.5832 6.41634V9.16634C16.3125 9.16634 17.012 9.45607 17.5277 9.9718C18.0434 10.4875 18.3332 11.187 18.3332 11.9163V17.4163C18.3332 18.1457 18.0434 18.8452 17.5277 19.3609C17.012 19.8766 16.3125 20.1663 15.5832 20.1663H6.4165C5.68716 20.1663 4.98769 19.8766 4.47196 19.3609C3.95624 18.8452 3.6665 18.1457 3.6665 17.4163V11.9163C3.6665 11.187 3.95624 10.4875 4.47196 9.9718C4.98769 9.45607 5.68716 9.16634 6.4165 9.16634V6.41634C6.4165 5.20077 6.89939 4.03498 7.75893 3.17544C8.61847 2.31589 9.78426 1.83301 10.9998 1.83301ZM10.9998 12.833C10.5373 12.8329 10.0918 13.0075 9.75267 13.322C9.41352 13.6365 9.20578 14.0676 9.17109 14.5288L9.1665 14.6663C9.1665 15.0289 9.27403 15.3834 9.47548 15.6849C9.67693 15.9864 9.96325 16.2214 10.2983 16.3601C10.6332 16.4989 11.0019 16.5352 11.3575 16.4644C11.7131 16.3937 12.0398 16.2191 12.2962 15.9627C12.5526 15.7063 12.7272 15.3796 12.7979 15.024C12.8687 14.6684 12.8324 14.2998 12.6936 13.9648C12.5549 13.6298 12.3199 13.3434 12.0184 13.142C11.7169 12.9405 11.3624 12.833 10.9998 12.833ZM10.9998 3.66634C10.2705 3.66634 9.57102 3.95607 9.05529 4.4718C8.53957 4.98752 8.24984 5.687 8.24984 6.41634V9.16634H13.7498V6.41634C13.7498 5.687 13.4601 4.98752 12.9444 4.4718C12.4287 3.95607 11.7292 3.66634 10.9998 3.66634Z" fill="#878787"/>
</svg>
