<svg width="23" height="23" viewBox="0 0 23 23" fill="none" xmlns="http://www.w3.org/2000/svg">
<path d="M14.7358 11.9858C14.8646 11.8569 14.9369 11.6822 14.9369 11.5C14.9369 11.3178 14.8646 11.1431 14.7358 11.0141L12.4442 8.72248C12.3812 8.65493 12.3053 8.60075 12.221 8.56318C12.1367 8.5256 12.0456 8.5054 11.9533 8.50377C11.861 8.50214 11.7693 8.51912 11.6837 8.5537C11.5981 8.58828 11.5203 8.63974 11.455 8.70503C11.3898 8.77031 11.3383 8.84807 11.3037 8.93368C11.2691 9.01929 11.2522 9.11098 11.2538 9.20329C11.2554 9.2956 11.2756 9.38664 11.3132 9.47097C11.3508 9.5553 11.405 9.6312 11.4725 9.69414L12.5908 10.8125H6C5.81766 10.8125 5.6428 10.8849 5.51386 11.0138C5.38493 11.1428 5.3125 11.3176 5.3125 11.5C5.3125 11.6823 5.38493 11.8572 5.51386 11.9861C5.6428 12.115 5.81766 12.1875 6 12.1875H12.5908L11.4725 13.3058C11.405 13.3688 11.3508 13.4447 11.3132 13.529C11.2756 13.6133 11.2554 13.7044 11.2538 13.7967C11.2522 13.889 11.2691 13.9807 11.3037 14.0663C11.3383 14.1519 11.3898 14.2296 11.455 14.2949C11.5203 14.3602 11.5981 14.4117 11.6837 14.4463C11.7693 14.4808 11.861 14.4978 11.9533 14.4962C12.0456 14.4946 12.1367 14.4744 12.221 14.4368C12.3053 14.3992 12.3812 14.345 12.4442 14.2775L14.7358 11.9858Z" fill="#0A5266"/>
<path fill-rule="evenodd" clip-rule="evenodd" d="M13.2829 1.64587H14.3004C15.5535 1.64587 16.5646 1.64587 17.3593 1.75312C18.1843 1.86312 18.8792 2.10146 19.431 2.65237C19.9828 3.20421 20.2193 3.89904 20.3312 4.72404C20.4375 5.51879 20.4375 6.52987 20.4375 7.78296V15.2171C20.4375 16.4702 20.4375 17.4813 20.3312 18.276C20.2193 19.101 19.9828 19.7959 19.431 20.3477C18.8792 20.8995 18.1843 21.136 17.3593 21.2479C16.5646 21.3542 15.5535 21.3542 14.3004 21.3542H13.2829C12.0298 21.3542 11.0188 21.3542 10.224 21.2479C9.399 21.136 8.70417 20.8995 8.15233 20.3477C7.78567 19.981 7.55833 19.5511 7.41442 19.0625C6.54267 19.0616 5.81575 19.0515 5.22725 18.9727C4.52692 18.8783 3.92008 18.6748 3.43517 18.1899C2.95025 17.705 2.74675 17.099 2.65233 16.3978C2.5625 15.7286 2.5625 14.8798 2.5625 13.8403V9.15979C2.5625 8.12121 2.5625 7.27329 2.65233 6.60229C2.74675 5.90287 2.95025 5.29604 3.43517 4.81112C3.92008 4.32621 4.526 4.12271 5.22725 4.02829C5.81575 3.94946 6.54267 3.93937 7.41442 3.93846C7.55833 3.44987 7.78658 3.01996 8.15233 2.65329C8.70417 2.10146 9.399 1.86496 10.224 1.75404C11.0188 1.64679 12.0298 1.64679 13.2829 1.64679M7.14583 15.2171C7.14583 16.1796 7.14583 16.9982 7.19442 17.6866C6.429 17.6839 5.86067 17.6701 5.41058 17.6096C4.86242 17.5363 4.59475 17.4043 4.40775 17.2173C4.22075 17.0303 4.08875 16.7626 4.01542 16.2145C3.93933 15.647 3.9375 14.8917 3.9375 13.7917V9.20837C3.9375 8.10837 3.93933 7.35304 4.01542 6.78562C4.08875 6.23746 4.22075 5.96979 4.40775 5.78279C4.59475 5.59579 4.86242 5.46379 5.41058 5.39046C5.86067 5.32996 6.429 5.31712 7.19442 5.31346C7.14583 6.00004 7.14583 6.82046 7.14583 7.78296V7.83337C7.14583 8.01571 7.21827 8.19058 7.3472 8.31951C7.47613 8.44844 7.651 8.52087 7.83333 8.52087C8.01567 8.52087 8.19054 8.44844 8.31947 8.31951C8.4484 8.19058 8.52083 8.01571 8.52083 7.83337C8.52083 6.51796 8.52267 5.59946 8.61525 4.90737C8.706 4.23454 8.87192 3.87887 9.12492 3.62496C9.37883 3.37104 9.7345 3.20604 10.4083 3.11529C11.1003 3.02271 12.0179 3.02087 13.3333 3.02087H14.25C15.5654 3.02087 16.483 3.02271 17.176 3.11529C17.8488 3.20604 18.2045 3.37196 18.4584 3.62496C18.7123 3.87887 18.8773 4.23454 18.9681 4.90829C19.0607 5.59946 19.0625 6.51796 19.0625 7.83337V15.1667C19.0625 16.4821 19.0607 17.3997 18.9681 18.0927C18.8773 18.7655 18.7114 19.1212 18.4584 19.3751C18.2045 19.629 17.8488 19.794 17.1751 19.8848C16.483 19.9774 15.5654 19.9792 14.25 19.9792H13.3333C12.0179 19.9792 11.0994 19.9774 10.4073 19.8848C9.7345 19.794 9.37883 19.6281 9.12492 19.3751C8.871 19.1212 8.706 18.7655 8.61525 18.0918C8.52267 17.3997 8.52083 16.4821 8.52083 15.1667C8.52083 14.9844 8.4484 14.8095 8.31947 14.6806C8.19054 14.5516 8.01567 14.4792 7.83333 14.4792C7.651 14.4792 7.47613 14.5516 7.3472 14.6806C7.21827 14.8095 7.14583 14.9844 7.14583 15.1667V15.2171Z" fill="#0A5266"/>
</svg>
