<svg width="23" height="23" viewBox="0 0 23 23" fill="none" xmlns="http://www.w3.org/2000/svg">
<path fill-rule="evenodd" clip-rule="evenodd" d="M3.70898 9.27067V13.7293C3.70898 15.8322 3.70898 16.8827 4.37082 17.5362C4.97123 18.1293 5.90532 18.1834 7.66715 18.1889C7.57457 17.5702 7.55532 16.8322 7.54982 15.9633C7.54982 15.8748 7.56725 15.7872 7.60112 15.7056C7.63499 15.6239 7.68463 15.5497 7.74721 15.4872C7.80978 15.4247 7.88407 15.3751 7.9658 15.3414C8.04754 15.3076 8.13513 15.2903 8.22357 15.2904C8.31205 15.2893 8.39987 15.3057 8.48204 15.3385C8.5642 15.3714 8.63908 15.4201 8.70241 15.4819C8.76574 15.5437 8.81628 15.6174 8.85114 15.6987C8.88599 15.78 8.90449 15.8674 8.90557 15.9559C8.91107 16.9313 8.93582 17.6224 9.0339 18.1467C9.12832 18.6528 9.27865 18.9443 9.49865 19.1624C9.7489 19.4099 10.1 19.5703 10.7637 19.6574C11.4457 19.7491 12.3495 19.75 13.6466 19.75H14.5495C15.8466 19.75 16.7504 19.7482 17.4333 19.6583C18.0961 19.5703 18.4472 19.409 18.6965 19.1624C18.9467 18.9149 19.1099 18.5684 19.1988 17.9139C19.2905 17.2411 19.2923 16.3473 19.2923 15.0677V7.93233C19.2923 6.65175 19.2905 5.75983 19.1988 5.08608C19.1099 4.43158 18.9467 4.08417 18.6974 3.83758C18.4471 3.59008 18.0961 3.42967 17.4324 3.34258C16.7513 3.25 15.8475 3.25 14.5504 3.25H13.6475C12.3504 3.25 11.4466 3.25183 10.7637 3.34167C10.1009 3.42967 9.74982 3.591 9.49957 3.83758C9.27957 4.05483 9.12923 4.34725 9.03482 4.85325C8.93673 5.37758 8.91198 6.06875 8.90648 7.04408C8.90541 7.13256 8.88691 7.21996 8.85205 7.3013C8.8172 7.38263 8.76666 7.4563 8.70333 7.5181C8.64 7.57989 8.56511 7.62861 8.48295 7.66147C8.40079 7.69432 8.31296 7.71067 8.22448 7.70958C8.13605 7.7097 8.04846 7.69239 7.96672 7.65863C7.88498 7.62487 7.8107 7.57533 7.74813 7.51284C7.68555 7.45035 7.63591 7.37614 7.60204 7.29444C7.56817 7.21275 7.55073 7.12519 7.55073 7.03675C7.55623 6.16775 7.57548 5.42983 7.66807 4.81108C5.90623 4.81658 4.97307 4.87067 4.37173 5.46375C3.7099 6.11733 3.70898 7.16875 3.70898 9.27067ZM5.94107 11.973C5.87821 11.9113 5.82827 11.8377 5.79419 11.7565C5.7601 11.6753 5.74255 11.5881 5.74255 11.5C5.74255 11.4119 5.7601 11.3247 5.79419 11.2435C5.82827 11.1623 5.87821 11.0887 5.94107 11.027L7.7469 9.24317C7.87479 9.11743 8.04697 9.04697 8.22632 9.04697C8.40567 9.04697 8.57784 9.11743 8.70573 9.24317C8.76859 9.30486 8.81853 9.37847 8.85261 9.45968C8.8867 9.5409 8.90425 9.62809 8.90425 9.71617C8.90425 9.80424 8.8867 9.89144 8.85261 9.97265C8.81853 10.0539 8.76859 10.1275 8.70573 10.1892L8.0549 10.8308H14.5504C14.9244 10.8308 15.2287 11.1306 15.2287 11.5C15.2287 11.8694 14.9244 12.1692 14.5504 12.1692H8.05398L8.70482 12.8108C8.76768 12.8725 8.81761 12.9461 8.8517 13.0273C8.88578 13.1086 8.90334 13.1958 8.90334 13.2838C8.90334 13.3719 8.88578 13.4591 8.8517 13.5403C8.81761 13.6215 8.76768 13.6951 8.70482 13.7568C8.57692 13.8826 8.40475 13.953 8.2254 13.953C8.04605 13.953 7.87388 13.8826 7.74598 13.7568L5.94107 11.973Z" fill="#777777"/>
</svg>
