<svg width="18" height="18" viewBox="0 0 18 18" fill="none" xmlns="http://www.w3.org/2000/svg">
<path d="M17.9272 13.0459C17.774 14.2104 17.2021 15.2792 16.3184 16.0529C15.4346 16.8265 14.2995 17.2521 13.125 17.2499C6.30157 17.2499 0.750008 11.6984 0.750008 4.87495C0.747902 3.70043 1.17341 2.56531 1.94706 1.68159C2.72071 0.797874 3.78959 0.225993 4.95407 0.0727607C5.24854 0.0368052 5.54674 0.0970482 5.80415 0.244497C6.06157 0.391945 6.26439 0.618691 6.38235 0.890886L8.19735 4.94284V4.95315C8.28766 5.16151 8.32496 5.38899 8.30591 5.61528C8.28687 5.84157 8.21207 6.05962 8.08821 6.24995C8.07274 6.27315 8.05641 6.29464 8.03923 6.31612L6.25001 8.43706C6.89368 9.74503 8.26181 11.1011 9.58696 11.7465L11.6787 9.96675C11.6992 9.94946 11.7207 9.93339 11.7431 9.91862C11.9333 9.79178 12.1521 9.71435 12.3797 9.69335C12.6074 9.67234 12.8366 9.70841 13.0468 9.79831L13.058 9.80346L17.1065 11.6176C17.3792 11.7351 17.6065 11.9378 17.7544 12.1952C17.9023 12.4527 17.963 12.7511 17.9272 13.0459Z" fill="black"/>
</svg>
