<svg width="40" height="40" viewBox="0 0 40 40" fill="none" xmlns="http://www.w3.org/2000/svg">
<rect width="40" height="40" rx="20" fill="url(#paint0_linear_569_913)"/>
<g clip-path="url(#clip0_569_913)">
<path d="M12.5 24.5C12.5 23.345 12.5 22.7675 12.7602 22.343C12.9057 22.1052 13.1053 21.9057 13.343 21.7602C13.7667 21.5 14.345 21.5 15.5 21.5C16.655 21.5 17.2325 21.5 17.657 21.7602C17.8947 21.9057 18.0942 22.1052 18.2397 22.343C18.5 22.7667 18.5 23.345 18.5 24.5C18.5 25.655 18.5 26.2325 18.2397 26.6577C18.0942 26.8947 17.8947 27.0942 17.657 27.2397C17.2332 27.5 16.655 27.5 15.5 27.5C14.345 27.5 13.7675 27.5 13.343 27.2397C13.1055 27.0945 12.9058 26.895 12.7602 26.6577C12.5 26.2325 12.5 25.655 12.5 24.5ZM21.5 24.5C21.5 23.345 21.5 22.7675 21.7602 22.343C21.9057 22.1052 22.1052 21.9057 22.343 21.7602C22.7667 21.5 23.345 21.5 24.5 21.5C25.655 21.5 26.2325 21.5 26.6577 21.7602C26.8947 21.9057 27.0942 22.1052 27.2397 22.343C27.5 22.7667 27.5 23.345 27.5 24.5C27.5 25.655 27.5 26.2325 27.2397 26.6577C27.0942 26.8948 26.8948 27.0942 26.6577 27.2397C26.2325 27.5 25.655 27.5 24.5 27.5C23.345 27.5 22.7675 27.5 22.343 27.2397C22.1055 27.0945 21.9058 26.895 21.7602 26.6577C21.5 26.2325 21.5 25.655 21.5 24.5ZM12.5 15.5C12.5 14.345 12.5 13.7675 12.7602 13.343C12.9057 13.1053 13.1053 12.9057 13.343 12.7602C13.7667 12.5 14.345 12.5 15.5 12.5C16.655 12.5 17.2325 12.5 17.657 12.7602C17.8947 12.9057 18.0942 13.1053 18.2397 13.343C18.5 13.7667 18.5 14.345 18.5 15.5C18.5 16.655 18.5 17.2325 18.2397 17.657C18.0942 17.8947 17.8947 18.0942 17.657 18.2397C17.2332 18.5 16.655 18.5 15.5 18.5C14.345 18.5 13.7675 18.5 13.343 18.2397C13.1054 18.0943 12.9057 17.8946 12.7602 17.657C12.5 17.2332 12.5 16.655 12.5 15.5ZM21.5 15.5C21.5 14.345 21.5 13.7675 21.7602 13.343C21.9057 13.1053 22.1052 12.9057 22.343 12.7602C22.7667 12.5 23.345 12.5 24.5 12.5C25.655 12.5 26.2325 12.5 26.6577 12.7602C26.8947 12.9057 27.0942 13.1053 27.2397 13.343C27.5 13.7667 27.5 14.345 27.5 15.5C27.5 16.655 27.5 17.2325 27.2397 17.657C27.0942 17.8947 26.8947 18.0942 26.6577 18.2397C26.2325 18.5 25.655 18.5 24.5 18.5C23.345 18.5 22.7675 18.5 22.343 18.2397C22.1054 18.0943 21.9057 17.8946 21.7602 17.657C21.5 17.2332 21.5 16.655 21.5 15.5Z" stroke="white" stroke-width="1.5625" stroke-linecap="round" stroke-linejoin="round"/>
</g>
<defs>
<linearGradient id="paint0_linear_569_913" x1="3.5" y1="2.36928e-07" x2="33" y2="40" gradientUnits="userSpaceOnUse">
<stop stop-color="#FA5A15"/>
<stop offset="1" stop-color="#FEBB4F"/>
</linearGradient>
<clipPath id="clip0_569_913">
<rect width="18" height="18" fill="white" transform="translate(11 11)"/>
</clipPath>
</defs>
</svg>
