<svg width="35" height="42" viewBox="0 0 35 42" fill="none" xmlns="http://www.w3.org/2000/svg">
<g clip-path="url(#clip0_246_485)">
<path d="M29.6904 3.69141C27.7854 1.53524 24.3419 0.61084 19.9366 0.61084H7.15112C6.71524 0.610773 6.29363 0.765162 5.96214 1.04623C5.63065 1.32731 5.41104 1.71662 5.34281 2.14413L0.019186 35.6728C-0.0866303 36.3339 0.428917 36.9326 1.10373 36.9326H8.99703L10.9794 24.4465L10.9179 24.8375C11.0591 23.9549 11.8192 23.3039 12.7193 23.3039H16.4702C23.8388 23.3039 29.6085 20.3318 31.2939 11.7342C31.344 11.4799 31.3873 11.2324 31.4248 10.9906C31.212 10.8788 31.212 10.8788 31.4248 10.9906C31.9266 7.81286 31.4213 5.64977 29.6904 3.69141Z" fill="#27346A"/>
<path d="M13.9997 9.84589C14.2154 9.74369 14.4514 9.6908 14.6905 9.69112H24.714C25.901 9.69112 27.0081 9.76782 28.0198 9.92952C28.3029 9.97437 28.5845 10.0279 28.8642 10.09C29.2608 10.1769 29.6527 10.2832 30.0386 10.4086C30.536 10.5736 30.9992 10.7657 31.4249 10.9906C31.9266 7.81164 31.4213 5.64977 29.6904 3.69141C27.7843 1.53524 24.3419 0.61084 19.9366 0.61084H7.15003C6.24977 0.61084 5.4839 1.26168 5.34281 2.14413L0.0191867 35.6715C-0.0866296 36.3338 0.428917 36.9317 1.10264 36.9317H8.99703L13.1098 11.0324C13.1503 10.7779 13.2524 10.5369 13.4074 10.3302C13.5624 10.1235 13.7657 9.95732 13.9997 9.84589Z" fill="#27346A"/>
<path d="M31.294 11.734C29.6086 20.3305 23.839 23.3038 16.4703 23.3038H12.7184C11.8182 23.3038 11.058 23.9548 10.9181 24.8373L8.45193 40.3624C8.35979 40.941 8.8104 41.4653 9.39991 41.4653H16.0538C16.4349 41.4652 16.8035 41.33 17.0933 41.0842C17.3831 40.8383 17.575 40.4978 17.6346 40.124L17.6994 39.7873L18.9534 31.8946L19.0342 31.4584C19.0938 31.0846 19.2857 30.7442 19.5755 30.4983C19.8652 30.2524 20.2338 30.1172 20.6149 30.1171H21.6107C28.0564 30.1171 33.1034 27.5167 34.5783 19.9961C35.1939 16.8532 34.8754 14.2292 33.2469 12.3861C32.7529 11.8279 32.1395 11.3668 31.4249 10.9905C31.3862 11.2335 31.3442 11.4798 31.294 11.734Z" fill="#2790C3"/>
<path d="M29.6609 10.2922C29.3981 10.216 29.1328 10.1485 28.8655 10.0899C28.5856 10.0288 28.304 9.97567 28.021 9.93054C27.0082 9.76776 25.9019 9.69092 24.7139 9.69092H14.6916C14.4524 9.69052 14.2162 9.74385 14.0007 9.84691C13.7664 9.95794 13.5629 10.124 13.4078 10.3308C13.2528 10.5375 13.1508 10.7787 13.1107 11.0335L10.9805 24.4464L10.9189 24.8374C11.0591 23.9548 11.8192 23.3039 12.7195 23.3039H16.4714C23.84 23.3039 29.6096 20.3318 31.295 11.7341C31.3452 11.4799 31.3873 11.2334 31.426 10.9906C30.9993 10.767 30.5372 10.5734 30.0397 10.4096C29.9142 10.3683 29.7879 10.3292 29.661 10.2922" fill="#1F264F"/>
</g>
<defs>
<clipPath id="clip0_246_485">
<rect width="35" height="41" fill="white" transform="translate(0 0.5)"/>
</clipPath>
</defs>
</svg>
