<svg width="22" height="22" viewBox="0 0 22 22" fill="none" xmlns="http://www.w3.org/2000/svg">
<path d="M17.1875 6.35938L16.28 5.30364C15.5105 4.49547 14.5847 3.85231 13.5588 3.4133C12.5329 2.97429 11.4284 2.74862 10.3125 2.75001C5.75781 2.75001 2.0625 6.44532 2.0625 11C2.0625 15.5547 5.75781 19.25 10.3125 19.25C12.0188 19.2499 13.6831 18.721 15.0764 17.736C16.4697 16.7511 17.5236 15.3585 18.0929 13.75" stroke="white" stroke-width="1.5625" stroke-miterlimit="10" stroke-linecap="round"/>
<path d="M19.9377 4.18598V8.93747C19.9377 9.11981 19.8653 9.29467 19.7363 9.4236C19.6074 9.55254 19.4325 9.62497 19.2502 9.62497H14.4987C13.886 9.62497 13.5792 8.88462 14.0123 8.45149L18.7642 3.69958C19.1973 3.26559 19.9377 3.57325 19.9377 4.18598Z" fill="white"/>
</svg>
