<svg width="30" height="30" viewBox="0 0 30 30" fill="none" xmlns="http://www.w3.org/2000/svg">
<path d="M18.825 13.125C18.9908 12.9393 19.076 12.6955 19.0619 12.447C19.0479 12.1985 18.9357 11.9658 18.75 11.8C18.5644 11.6342 18.3205 11.549 18.072 11.5631C17.8235 11.5772 17.5908 11.6893 17.425 11.875L13.6613 16.0925L12.5738 14.875C12.4076 14.6913 12.1754 14.5809 11.9281 14.5679C11.6807 14.5548 11.4383 14.6402 11.2537 14.8053C11.069 14.9704 10.9573 15.2019 10.9428 15.4492C10.9283 15.6965 11.0122 15.9394 11.1763 16.125L12.9613 18.125C13.0492 18.2235 13.157 18.3023 13.2775 18.3563C13.398 18.4103 13.5286 18.4382 13.6607 18.4382C13.7927 18.4382 13.9233 18.4103 14.0438 18.3563C14.1643 18.3023 14.2721 18.2235 14.36 18.125L18.825 13.125Z" fill="white"/>
<path fill-rule="evenodd" clip-rule="evenodd" d="M15 1.5625C13.8287 1.5625 12.7087 1.94625 10.9037 2.56375L9.995 2.87625C8.14375 3.50875 6.71375 3.99875 5.69125 4.41375C5.17625 4.6225 4.7325 4.82625 4.37625 5.0325C4.0325 5.2325 3.68875 5.48125 3.455 5.815C3.22375 6.14375 3.10375 6.54875 3.02875 6.94C2.95 7.345 2.90375 7.83125 2.8725 8.39C2.8125 9.4975 2.8125 11.0175 2.8125 12.9875V14.9887C2.8125 22.615 8.5725 26.2712 11.9975 27.7687L12.0312 27.7825C12.4563 27.9687 12.8563 28.1425 13.315 28.26C13.7988 28.385 14.3138 28.4375 15 28.4375C15.6875 28.4375 16.2 28.385 16.685 28.26C17.1437 28.1425 17.5437 27.9687 17.9675 27.7825L18.0025 27.7687C21.4275 26.2712 27.1875 22.615 27.1875 14.9887V12.9875C27.1875 11.0175 27.1875 9.4975 27.1275 8.38875C27.1068 7.90255 27.0546 7.41819 26.9712 6.93875C26.8962 6.54875 26.7762 6.14375 26.5462 5.81375C26.3112 5.48125 25.9675 5.2325 25.6238 5.0325C25.1992 4.79812 24.76 4.59144 24.3088 4.41375C23.2863 3.99875 21.8562 3.50875 20.005 2.87625L19.0963 2.56375C17.2913 1.94625 16.1713 1.5625 15 1.5625ZM11.35 4.3925C13.3687 3.7025 14.1775 3.4375 15 3.4375C15.8225 3.4375 16.6313 3.7025 18.65 4.3925L19.365 4.6375C21.2563 5.285 22.635 5.7575 23.6025 6.15C24.0863 6.3475 24.4363 6.5125 24.6825 6.655C24.8025 6.725 24.8892 6.78292 24.9425 6.82875C24.99 6.86625 25.0088 6.88875 25.0113 6.89125C25.0277 6.92066 25.0411 6.95165 25.0513 6.98375C25.0763 7.05208 25.1025 7.15542 25.13 7.29375C25.1991 7.68957 25.2409 8.08969 25.255 8.49125C25.3125 9.5425 25.3125 11.01 25.3125 13.0212V14.9887C25.3125 21.4587 20.475 24.6425 17.2512 26.05C16.7875 26.2525 16.5188 26.3675 16.22 26.4437C15.935 26.5175 15.5875 26.5625 15 26.5625C14.4125 26.5625 14.065 26.5175 13.78 26.4437C13.48 26.3687 13.2125 26.2525 12.7488 26.05C9.52375 24.6425 4.6875 21.4575 4.6875 14.9887V13.0212C4.6875 11.01 4.6875 9.5425 4.745 8.49125C4.75912 8.08969 4.80089 7.68957 4.87 7.29375C4.89667 7.15542 4.92292 7.05208 4.94875 6.98375C4.97125 6.92125 4.98625 6.89625 4.98875 6.89125C5.00968 6.86833 5.03269 6.8474 5.0575 6.82875C5.11083 6.78292 5.1975 6.72458 5.3175 6.65375C5.56375 6.51125 5.91375 6.3475 6.3975 6.15125C7.365 5.7575 8.74375 5.285 10.635 4.63875L11.35 4.3925Z" fill="white"/>
</svg>
