<svg width="20" height="20" viewBox="0 0 20 20" fill="none" xmlns="http://www.w3.org/2000/svg">
<path d="M18.8219 11.6995C18.9928 11.825 19.1202 12.0007 19.1864 12.2021C19.2526 12.4035 19.2542 12.6205 19.1911 12.8229C18.7546 14.2159 18.0134 15.4941 17.0213 16.5649C16.8779 16.7184 16.6904 16.8238 16.4848 16.8665C16.2791 16.9092 16.0652 16.8872 15.8725 16.8035L14.5284 16.2136C14.3816 16.1483 14.2215 16.1181 14.0609 16.1256C13.9011 16.1356 13.7457 16.1827 13.6072 16.2631C13.4687 16.3432 13.3511 16.455 13.2642 16.5893C13.1773 16.7237 13.1236 16.8767 13.1074 17.0359L12.9458 18.5003C12.9225 18.7087 12.8354 18.9049 12.6963 19.0619C12.5573 19.219 12.3731 19.3292 12.1689 19.3775C10.7417 19.7178 9.25393 19.7178 7.82668 19.3775C7.6238 19.3288 7.44078 19.219 7.30243 19.0628C7.16408 18.9066 7.07709 18.7117 7.05324 18.5044L6.89168 17.0428C6.86394 16.7936 6.7452 16.5635 6.55825 16.3965C6.41221 16.2677 6.23269 16.1829 6.04045 16.1519C5.84822 16.1209 5.65114 16.1449 5.47199 16.2212L4.12793 16.8118C3.93577 16.8953 3.72249 16.9175 3.51724 16.8753C3.312 16.8331 3.12478 16.7286 2.98118 16.576C1.98749 15.504 1.24531 14.224 0.808682 12.8291C0.745763 12.627 0.747446 12.4103 0.813498 12.2091C0.879549 12.008 1.00668 11.8325 1.17718 11.7071L2.36312 10.8305C2.49271 10.7355 2.59809 10.6113 2.67073 10.468C2.74337 10.3246 2.78122 10.1662 2.78122 10.0055C2.78122 9.84482 2.74337 9.6864 2.67073 9.54306C2.59809 9.39973 2.49271 9.27553 2.36312 9.18051L1.17718 8.30533C1.00791 8.18028 0.881572 8.00583 0.815576 7.80599C0.74958 7.60616 0.747171 7.39077 0.808682 7.18951C1.24451 5.7954 1.98655 4.51638 2.98049 3.44607C3.07674 3.34226 3.19362 3.25976 3.32424 3.20476C3.45148 3.15087 3.58825 3.1231 3.72643 3.1231C3.86461 3.1231 4.00138 3.15087 4.12862 3.20476L5.46718 3.79464C5.61444 3.85789 5.77447 3.88578 5.93445 3.87607C6.09442 3.86637 6.2499 3.81933 6.38844 3.73874C6.52697 3.65815 6.6447 3.54623 6.73221 3.41196C6.81972 3.27769 6.87457 3.12479 6.89237 2.96551L7.05462 1.50664C7.07802 1.29591 7.16666 1.09776 7.30816 0.93986C7.44967 0.781965 7.63696 0.672217 7.84387 0.62595C8.55444 0.469368 9.27918 0.385974 10.0067 0.377075C10.73 0.385325 11.4505 0.468513 12.1566 0.62595C12.3636 0.672462 12.551 0.78257 12.6924 0.94086C12.8338 1.09915 12.9222 1.2977 12.9451 1.5087L13.1074 2.9662C13.1246 3.12524 13.179 3.278 13.2661 3.41213C13.3533 3.54626 13.4708 3.658 13.6091 3.73832C13.7475 3.81863 13.9028 3.86527 14.0625 3.87445C14.2222 3.88364 14.3818 3.85512 14.5284 3.7912L15.8663 3.20201C16.0592 3.11776 16.2734 3.0954 16.4796 3.138C16.6857 3.1806 16.8735 3.28608 17.0172 3.43989C18.0111 4.50864 18.7528 5.78665 19.1876 7.17989C19.2502 7.38188 19.2482 7.59834 19.182 7.79917C19.1159 8.00001 18.9888 8.17524 18.8184 8.30051L17.6359 9.1757C17.5058 9.26986 17.3999 9.39348 17.3267 9.53645C17.2535 9.67942 17.2153 9.83768 17.215 9.99828C17.2147 10.1589 17.2525 10.3173 17.3252 10.4605C17.3978 10.6037 17.5034 10.7277 17.6332 10.8223L18.8219 11.6995ZM9.99987 12.75C10.7292 12.75 11.4287 12.4603 11.9444 11.9446C12.4601 11.4288 12.7499 10.7294 12.7499 10C12.7499 9.27067 12.4601 8.57119 11.9444 8.05547C11.4287 7.53974 10.7292 7.25001 9.99987 7.25001C9.27052 7.25001 8.57105 7.53974 8.05533 8.05547C7.5396 8.57119 7.24987 9.27067 7.24987 10C7.24987 10.7294 7.5396 11.4288 8.05533 11.9446C8.57105 12.4603 9.27052 12.75 9.99987 12.75Z" fill="black"/>
</svg>
