<svg width="20" height="18" viewBox="0 0 20 18" fill="none" xmlns="http://www.w3.org/2000/svg">
<path d="M4.50016 17.25L0.833496 13.5833L4.50016 9.91667L5.7835 11.2L4.31683 12.6667H15.6835L14.2168 11.2L15.5002 9.91667L19.1668 13.5833L15.5002 17.25L14.2168 15.9667L15.6835 14.5H4.31683L5.7835 15.9667L4.50016 17.25ZM0.833496 8.08334V7.55626C0.833496 7.18959 0.932802 6.85348 1.13141 6.54792C1.33002 6.24237 1.60502 6.0132 1.95641 5.86042C2.35363 5.69237 2.76247 5.56251 3.18291 5.47084C3.60336 5.37917 4.04244 5.33334 4.50016 5.33334C4.95788 5.33334 5.39727 5.37917 5.81833 5.47084C6.23939 5.56251 6.64791 5.69237 7.04391 5.86042C7.3953 6.0132 7.6703 6.24237 7.86891 6.54792C8.06752 6.85348 8.16683 7.18959 8.16683 7.55626V8.08334H0.833496ZM11.8335 8.08334V7.55626C11.8335 7.18959 11.9328 6.85348 12.1314 6.54792C12.33 6.24237 12.605 6.0132 12.9564 5.86042C13.3536 5.69237 13.7625 5.56251 14.1829 5.47084C14.6034 5.37917 15.0424 5.33334 15.5002 5.33334C15.9579 5.33334 16.3973 5.37917 16.8183 5.47084C17.2394 5.56251 17.6479 5.69237 18.0439 5.86042C18.3953 6.0132 18.6703 6.24237 18.8689 6.54792C19.0675 6.85348 19.1668 7.18959 19.1668 7.55626V8.08334H11.8335ZM4.50016 4.41667C3.996 4.41667 3.56455 4.23731 3.20583 3.87859C2.84711 3.51987 2.66744 3.08812 2.66683 2.58334C2.66622 2.07856 2.84588 1.64712 3.20583 1.28901C3.56577 0.930895 3.99722 0.751228 4.50016 0.750006C5.00311 0.748784 5.43486 0.928451 5.79541 1.28901C6.15597 1.64956 6.33533 2.08101 6.3335 2.58334C6.33166 3.08567 6.1523 3.51742 5.79541 3.87859C5.43852 4.23976 5.00677 4.41912 4.50016 4.41667ZM15.5002 4.41667C14.996 4.41667 14.5646 4.23731 14.2058 3.87859C13.8471 3.51987 13.6674 3.08812 13.6668 2.58334C13.6662 2.07856 13.8459 1.64712 14.2058 1.28901C14.5658 0.930895 14.9972 0.751228 15.5002 0.750006C16.0031 0.748784 16.4349 0.928451 16.7954 1.28901C17.156 1.64956 17.3353 2.08101 17.3335 2.58334C17.3317 3.08567 17.1523 3.51742 16.7954 3.87859C16.4385 4.23976 16.0068 4.41912 15.5002 4.41667Z" fill="black"/>
</svg>
