<svg width="15" height="16" viewBox="0 0 15 16" fill="none" xmlns="http://www.w3.org/2000/svg">
<path stroke="#878787" stroke-width="0.5" d="M12.515 10.3613L9.74708 9.1209C9.62166 9.06716 9.48483 9.04556 9.34896 9.05804C9.21309 9.07052 9.08248 9.1167 8.96895 9.19239C8.95745 9.19981 8.94649 9.20804 8.93614 9.217L7.48946 10.4475C7.47445 10.4556 7.45774 10.4602 7.44066 10.4608C7.42357 10.4614 7.40658 10.4581 7.39102 10.451C6.46114 10.0022 5.49786 9.04473 5.04727 8.12774C5.03978 8.11252 5.03588 8.09578 5.03588 8.07881C5.03588 8.06185 5.03978 8.04511 5.04727 8.02989L6.28184 6.56153C6.29071 6.5507 6.29893 6.53935 6.30645 6.52754C6.38109 6.41358 6.42618 6.28282 6.43763 6.14708C6.44909 6.01133 6.42656 5.87486 6.37208 5.75L5.14044 2.98965C5.07049 2.82653 4.94953 2.6905 4.7957 2.60196C4.64188 2.51343 4.46349 2.47717 4.28731 2.49864C3.52167 2.59942 2.81891 2.97547 2.31028 3.55656C1.80166 4.13764 1.52196 4.88401 1.52344 5.65625C1.52344 10.2441 5.25587 13.9766 9.84376 13.9766C10.616 13.978 11.3624 13.6984 11.9435 13.1897C12.5245 12.6811 12.9006 11.9783 13.0014 11.2127C13.0228 11.0373 12.987 10.8598 12.8994 10.7064C12.8118 10.553 12.677 10.432 12.515 10.3613ZM9.84376 13.2734C5.64376 13.2734 2.22657 9.85625 2.22657 5.65625C2.22461 5.05504 2.44161 4.47368 2.83702 4.02079C3.23244 3.5679 3.77922 3.27447 4.3752 3.19532H4.38868C4.41229 3.19576 4.43522 3.20332 4.45446 3.21702C4.4737 3.23072 4.48835 3.24991 4.49649 3.27207L5.73282 6.03242C5.73987 6.04777 5.74352 6.06446 5.74352 6.08135C5.74352 6.09824 5.73987 6.11493 5.73282 6.13028L4.4959 7.59864C4.48672 7.60915 4.4783 7.62032 4.47071 7.63203C4.39331 7.75019 4.34773 7.88633 4.33839 8.02728C4.32905 8.16822 4.35626 8.30919 4.41739 8.43653C4.93712 9.50059 6.00938 10.5647 7.08516 11.0844C7.21325 11.1452 7.3549 11.1717 7.49631 11.1615C7.63771 11.1512 7.77404 11.1044 7.892 11.0258C7.90313 11.0182 7.91426 11.01 7.92481 11.0012L9.3709 9.77071C9.38519 9.76303 9.40096 9.75854 9.41714 9.75752C9.43332 9.75651 9.44953 9.75901 9.46465 9.76485L12.2332 11.0053C12.2558 11.0149 12.2748 11.0314 12.2876 11.0524C12.3003 11.0735 12.3061 11.098 12.3041 11.1225C12.2254 11.7187 11.9322 12.2659 11.4794 12.6618C11.0266 13.0576 10.4452 13.2751 9.84376 13.2734ZM8.08594 5.1875C8.08594 5.09426 8.12298 5.00484 8.18891 4.93891C8.25484 4.87298 8.34427 4.83594 8.43751 4.83594H9.96094V3.3125C9.96094 3.21926 9.99798 3.12984 10.0639 3.06391C10.1298 2.99798 10.2193 2.96094 10.3125 2.96094C10.4057 2.96094 10.4952 2.99798 10.5611 3.06391C10.627 3.12984 10.6641 3.21926 10.6641 3.3125V4.83594H12.1875C12.2807 4.83594 12.3702 4.87298 12.4361 4.93891C12.502 5.00484 12.5391 5.09426 12.5391 5.1875C12.5391 5.28074 12.502 5.37016 12.4361 5.43609C12.3702 5.50203 12.2807 5.53907 12.1875 5.53907H10.6641V7.0625C10.6641 7.15574 10.627 7.24516 10.5611 7.3111C10.4952 7.37703 10.4057 7.41407 10.3125 7.41407C10.2193 7.41407 10.1298 7.37703 10.0639 7.3111C9.99798 7.24516 9.96094 7.15574 9.96094 7.0625V5.53907H8.43751C8.34427 5.53907 8.25484 5.50203 8.18891 5.43609C8.12298 5.37016 8.08594 5.28074 8.08594 5.1875Z" fill="#878787"/>
</svg>
