<svg width="15" height="16" viewBox="0 0 15 16" fill="none" xmlns="http://www.w3.org/2000/svg">
<path d="M5.62508 14.25L5.4682 12.0569C5.448 11.7777 5.48555 11.4974 5.57849 11.2334C5.67143 10.9694 5.81778 10.7274 6.00841 10.5225C6.19903 10.3176 6.42984 10.1542 6.68643 10.0424C6.94302 9.93066 7.21989 9.87299 7.49977 9.87299C7.77964 9.87299 8.05651 9.93066 8.3131 10.0424C8.56969 10.1542 8.8005 10.3176 8.99113 10.5225C9.18175 10.7274 9.3281 10.9694 9.42104 11.2334C9.51399 11.4974 9.55153 11.7777 9.53133 12.0569L9.37508 14.25" stroke="#FA5A15" stroke-width="1.5625" stroke-linecap="round" stroke-linejoin="round"/>
<path d="M1.47003 8.75875C1.24878 7.3225 1.13878 6.605 1.41003 5.96812C1.68128 5.33125 2.28378 4.89625 3.48815 4.02562L4.38815 3.375C5.88628 2.29187 6.63565 1.75 7.50065 1.75C8.3644 1.75 9.11315 2.29187 10.6119 3.375L11.5119 4.02562C12.7163 4.89625 13.3182 5.33187 13.59 5.96812C13.8613 6.605 13.7513 7.3225 13.5307 8.75812L13.3425 9.98312C13.03 12.0181 12.8732 13.0356 12.1432 13.6431C11.4132 14.2506 10.3463 14.25 8.21253 14.25H6.78753C4.65315 14.25 3.58628 14.25 2.85628 13.6431C2.12628 13.0356 1.97003 12.0181 1.65753 9.9825L1.47003 8.75875Z" stroke="#FA5A15" stroke-width="1.5625" stroke-linecap="round" stroke-linejoin="round"/>
</svg>
