<svg width="15" height="16" viewBox="0 0 15 16" fill="none" xmlns="http://www.w3.org/2000/svg">
<path d="M3.75 13.625L1.25 11.125L3.75 8.625L4.625 9.5L3.625 10.5H11.375L10.375 9.5L11.25 8.625L13.75 11.125L11.25 13.625L10.375 12.75L11.375 11.75H3.625L4.625 12.75L3.75 13.625ZM1.25 7.375V7.01563C1.25 6.76563 1.31771 6.53646 1.45313 6.32813C1.58854 6.1198 1.77604 5.96355 2.01562 5.85938C2.28646 5.7448 2.56521 5.65625 2.85188 5.59375C3.13854 5.53125 3.43792 5.5 3.75 5.5C4.06208 5.5 4.36167 5.53125 4.64875 5.59375C4.93583 5.65625 5.21437 5.7448 5.48438 5.85938C5.72396 5.96355 5.91146 6.1198 6.04688 6.32813C6.18229 6.53646 6.25 6.76563 6.25 7.01563V7.375H1.25ZM8.75 7.375V7.01563C8.75 6.76563 8.81771 6.53646 8.95312 6.32813C9.08854 6.1198 9.27604 5.96355 9.51562 5.85938C9.78646 5.7448 10.0652 5.65625 10.3519 5.59375C10.6385 5.53125 10.9379 5.5 11.25 5.5C11.5621 5.5 11.8617 5.53125 12.1488 5.59375C12.4358 5.65625 12.7144 5.7448 12.9844 5.85938C13.224 5.96355 13.4115 6.1198 13.5469 6.32813C13.6823 6.53646 13.75 6.76563 13.75 7.01563V7.375H8.75ZM3.75 4.875C3.40625 4.875 3.11208 4.75271 2.8675 4.50813C2.62292 4.26355 2.50042 3.96917 2.5 3.625C2.49958 3.28084 2.62208 2.98667 2.8675 2.7425C3.11292 2.49834 3.40708 2.37584 3.75 2.375C4.09292 2.37417 4.38729 2.49667 4.63313 2.7425C4.87896 2.98834 5.00125 3.2825 5 3.625C4.99875 3.9675 4.87646 4.26188 4.63313 4.50813C4.38979 4.75438 4.09542 4.87667 3.75 4.875ZM11.25 4.875C10.9062 4.875 10.6121 4.75271 10.3675 4.50813C10.1229 4.26355 10.0004 3.96917 10 3.625C9.99958 3.28084 10.1221 2.98667 10.3675 2.7425C10.6129 2.49834 10.9071 2.37584 11.25 2.375C11.5929 2.37417 11.8873 2.49667 12.1331 2.7425C12.379 2.98834 12.5013 3.2825 12.5 3.625C12.4987 3.9675 12.3765 4.26188 12.1331 4.50813C11.8898 4.75438 11.5954 4.87667 11.25 4.875Z" fill="#878787"/>
</svg>
