<svg width="16" height="16" viewBox="0 0 16 16" fill="none" xmlns="http://www.w3.org/2000/svg">
<path d="M4.25 6.75H6.75" stroke="#878787" stroke-width="1.125" stroke-linecap="round" stroke-linejoin="round"/>
<path d="M14.2487 8.3125C14.2487 8.26438 14.25 7.97938 14.2487 7.95938C14.2262 7.64625 13.9581 7.39687 13.6206 7.37625C13.5988 7.375 13.5731 7.375 13.5206 7.375H11.8944C10.7788 7.375 9.875 8.21438 9.875 9.25C9.875 10.2856 10.7794 11.125 11.8937 11.125H13.5206C13.5731 11.125 13.5988 11.125 13.6206 11.1237C13.9581 11.1031 14.2269 10.8538 14.2487 10.5406C14.25 10.5206 14.25 10.2356 14.25 10.1875" stroke="#878787" stroke-width="1.125" stroke-linecap="round"/>
<path d="M11.75 9.875C12.0952 9.875 12.375 9.59518 12.375 9.25C12.375 8.90482 12.0952 8.625 11.75 8.625C11.4048 8.625 11.125 8.90482 11.125 9.25C11.125 9.59518 11.4048 9.875 11.75 9.875Z" fill="#878787"/>
<path d="M6.75 14.25H8.625C10.9819 14.25 12.1606 14.25 12.8925 13.5175C13.3981 13.0125 13.555 12.295 13.6031 11.125M13.6031 7.37503C13.5544 6.20503 13.3981 5.48753 12.8925 4.98253C12.1606 4.25003 10.9819 4.25003 8.625 4.25003H6.75C4.39313 4.25003 3.21437 4.25003 2.4825 4.98253C1.75062 5.71503 1.75 6.89315 1.75 9.25003C1.75 11.6069 1.75 12.7857 2.4825 13.5175C2.89062 13.9263 3.4375 14.1069 4.25 14.1863M4.25 4.25003L6.58437 2.7019C6.91275 2.48859 7.29592 2.37506 7.6875 2.37506C8.07908 2.37506 8.46225 2.48859 8.79063 2.7019L11.125 4.25003" stroke="#878787" stroke-width="1.125" stroke-linecap="round"/>
</svg>
