<svg width="35" height="40" viewBox="0 0 35 40" fill="none" xmlns="http://www.w3.org/2000/svg">
<g clip-path="url(#clip0_41_197)">
<path d="M25.9379 14.4029C28.4914 16.2436 31.6197 17.3266 34.9982 17.3266V10.7708C34.3588 10.771 33.721 10.7037 33.0955 10.5699V15.7303C29.7172 15.7303 26.5893 14.6474 24.0353 12.8069V26.1857C24.0353 32.8785 18.6548 38.3036 12.0183 38.3036C9.54198 38.3036 7.24029 37.5487 5.32837 36.2539C7.51057 38.504 10.5538 39.8997 13.9205 39.8997C20.5576 39.8997 25.9382 34.4746 25.9382 27.7815V14.4029H25.9379ZM28.2852 7.78883C26.9802 6.35117 26.1233 4.49324 25.9379 2.43917V1.596H24.1348C24.5887 4.20662 26.1369 6.43697 28.2852 7.78883ZM9.52598 31.1182C8.79681 30.1543 8.40268 28.9749 8.40453 27.7623C8.40453 24.7014 10.8655 22.2194 13.9017 22.2194C14.4675 22.2191 15.0299 22.3067 15.5692 22.4792V15.7767C14.939 15.6897 14.303 15.6526 13.6673 15.6662V20.883C13.1277 20.7106 12.565 20.623 11.999 20.6234C8.96287 20.6234 6.50204 23.1051 6.50204 26.1665C6.50204 28.3312 7.73204 30.2052 9.52598 31.1182Z" fill="#FF004F"/>
<path d="M24.0353 12.8068C26.5895 14.6473 29.717 15.7302 33.0955 15.7302V10.5698C31.2096 10.1647 29.5403 9.17104 28.2851 7.78883C26.1367 6.43683 24.5887 4.20648 24.1348 1.596H19.3987V27.7812C19.3879 30.8339 16.9311 33.3057 13.9015 33.3057C12.1163 33.3057 10.5301 32.4476 9.5257 31.1181C7.73204 30.2052 6.5019 28.331 6.5019 26.1666C6.5019 23.1055 8.96272 20.6236 11.9988 20.6236C12.5805 20.6236 13.1412 20.7149 13.6671 20.8832V15.6663C7.14704 15.8022 1.90344 21.1743 1.90344 27.7814C1.90344 31.0796 3.20918 34.0695 5.3285 36.2542C7.24042 37.5487 9.54197 38.3039 12.0184 38.3039C18.6551 38.3039 24.0354 32.8783 24.0354 26.1857L24.0353 12.8068Z" fill="black"/>
<path d="M33.0955 10.5697V9.17462C31.3949 9.17711 29.728 8.69688 28.2851 7.78883C29.5623 9.19877 31.244 10.1711 33.0955 10.5699M24.1347 1.59586C24.0915 1.34642 24.0582 1.09532 24.0352 0.843172V0H17.4957V26.1855C17.4853 29.2379 15.0285 31.7097 11.9987 31.7097C11.1398 31.7109 10.2926 31.5084 9.5256 31.1183C10.53 32.4476 12.1162 33.3055 13.9014 33.3055C16.9309 33.3055 19.3879 30.8341 19.3986 27.7814V1.596L24.1347 1.59586ZM13.6674 15.6662V14.1808C13.121 14.1056 12.5701 14.0679 12.0186 14.068C5.38117 14.068 0.000854492 19.4934 0.000854492 26.1855C0.000854492 30.3812 2.11538 34.0789 5.32867 36.2539C3.20936 34.0694 1.90362 31.0793 1.90362 27.7812C1.90362 21.1743 7.14708 15.8021 13.6674 15.6662Z" fill="#00F2EA"/>
</g>
<defs>
<clipPath id="clip0_41_197">
<rect width="35" height="40" fill="white"/>
</clipPath>
</defs>
</svg>
