<svg width="31" height="36" viewBox="0 0 31 36" fill="none" xmlns="http://www.w3.org/2000/svg">
<g clip-path="url(#clip0_246_475)">
<path d="M22.8992 13.1025C25.1534 14.7131 27.915 15.6608 30.8976 15.6608V9.9244C30.3331 9.92462 29.7701 9.86572 29.2179 9.74867V14.264C26.2355 14.264 23.4742 13.3165 21.2195 11.706V23.4124C21.2195 29.2687 16.4697 34.0156 10.6109 34.0156C8.42485 34.0156 6.39292 33.3551 4.70508 32.2222C6.63153 34.191 9.31808 35.4122 12.2902 35.4122C18.1494 35.4122 22.8994 30.6653 22.8994 24.8088V13.1025H22.8992ZM24.9714 7.31521C23.8193 6.05726 23.0628 4.43157 22.8992 2.63426V1.89648H21.3074C21.7081 4.18078 23.0749 6.13233 24.9714 7.31521ZM8.41073 27.7284C7.76702 26.885 7.41908 25.853 7.42072 24.792C7.42072 22.1137 9.59325 19.942 12.2736 19.942C12.7731 19.9417 13.2696 20.0184 13.7457 20.1693V14.3046C13.1893 14.2284 12.6279 14.196 12.0667 14.2079V18.7726C11.5903 18.6217 11.0936 18.5451 10.5939 18.5455C7.91361 18.5455 5.7412 20.717 5.7412 23.3957C5.7412 25.2898 6.82704 26.9296 8.41073 27.7284Z" fill="#FF004F"/>
<path d="M21.2191 11.7059C23.474 13.3164 26.235 14.2639 29.2175 14.2639V9.74855C27.5527 9.39409 26.0789 8.52464 24.9709 7.31521C23.0742 6.13221 21.7077 4.18066 21.307 1.89648H17.1259V24.8086C17.1164 27.4797 14.9476 29.6424 12.273 29.6424C10.697 29.6424 9.29679 28.8916 8.41008 27.7283C6.82663 26.9296 5.74067 25.2896 5.74067 23.3958C5.74067 20.7173 7.91308 18.5456 10.5934 18.5456C11.1069 18.5456 11.6018 18.6255 12.0661 18.7728V14.208C6.3102 14.3269 1.68115 19.0275 1.68115 24.8087C1.68115 27.6946 2.83386 30.3108 4.70479 32.2224C6.39264 33.3551 8.42445 34.0159 10.6106 34.0159C16.4695 34.0159 21.2192 29.2685 21.2192 23.4124L21.2191 11.7059Z" fill="black"/>
<path d="M29.2179 9.74845V8.52779C27.7167 8.52997 26.2451 8.10977 24.9713 7.31522C26.0988 8.54893 27.5834 9.39969 29.2179 9.74869M21.3073 1.89638C21.2691 1.67812 21.2398 1.45841 21.2194 1.23778V0.5H15.4464V23.4123C15.4372 26.0832 13.2684 28.2459 10.5937 28.2459C9.83541 28.2471 9.08752 28.0698 8.4104 27.7286C9.29711 28.8916 10.6973 29.6423 12.2733 29.6423C14.9478 29.6423 17.1168 27.4798 17.1262 24.8087V1.8965L21.3073 1.89638ZM12.0668 14.2079V12.9082C11.5844 12.8424 11.0981 12.8094 10.6112 12.8095C4.75169 12.8095 0.00195312 17.5567 0.00195312 23.4123C0.00195312 27.0836 1.86866 30.319 4.70535 32.2222C2.83442 30.3107 1.68171 27.6944 1.68171 24.8086C1.68171 19.0276 6.31064 14.3268 12.0668 14.2079Z" fill="#00F2EA"/>
</g>
<defs>
<clipPath id="clip0_246_475">
<rect width="30.9" height="35" fill="white" transform="translate(0 0.5)"/>
</clipPath>
</defs>
</svg>
