<svg width="41" height="40" viewBox="0 0 41 40" fill="none" xmlns="http://www.w3.org/2000/svg">
<g clip-path="url(#clip0_46_215)">
<mask id="mask0_46_215" style="mask-type:luminance" maskUnits="userSpaceOnUse" x="1" y="-5" width="39" height="45">
<path d="M37.8641 14.8917C38.6336 16.9294 39.0547 19.1383 39.0547 21.4453C39.0547 31.6928 30.7475 40 20.5 40C10.2525 40 1.94531 31.6928 1.94531 21.4453C1.94531 19.1383 2.36641 16.9295 3.13594 14.8917C3.12344 14.6039 3.11719 14.3145 3.11719 14.0234C3.11719 3.77594 10.8998 -4.53125 20.5 -4.53125C30.1003 -4.53125 37.8828 3.77594 37.8828 14.0234C37.8828 14.3145 37.8766 14.6039 37.8641 14.8917Z" fill="white"/>
</mask>
<g mask="url(#mask0_46_215)">
<path fill-rule="evenodd" clip-rule="evenodd" d="M20.5 2.89062C30.7475 2.89062 39.0547 11.1978 39.0547 21.4453C39.0547 31.6928 30.7475 40 20.5 40C10.2525 40 1.94531 31.6928 1.94531 21.4453C1.94531 11.1978 10.2525 2.89062 20.5 2.89062Z" fill="#CCE08B"/>
</g>
<mask id="mask1_46_215" style="mask-type:luminance" maskUnits="userSpaceOnUse" x="1" y="-5" width="39" height="45">
<path d="M37.8641 14.8917C38.6336 16.9294 39.0547 19.1383 39.0547 21.4453C39.0547 31.6928 30.7475 40 20.5 40C10.2525 40 1.94531 31.6928 1.94531 21.4453C1.94531 19.1383 2.36641 16.9295 3.13594 14.8917C3.12344 14.6039 3.11719 14.3145 3.11719 14.0234C3.11719 3.77594 10.8998 -4.53125 20.5 -4.53125C30.1003 -4.53125 37.8828 3.77594 37.8828 14.0234C37.8828 14.3145 37.8766 14.6039 37.8641 14.8917Z" fill="white"/>
</mask>
<g mask="url(#mask1_46_215)">
<path fill-rule="evenodd" clip-rule="evenodd" d="M39.4992 44.4823H39.4998V23.0547H2.17526L2.13245 44.4825H2.13292C2.13292 44.4956 2.13245 44.5086 2.13245 44.5216C2.15042 48.907 10.5126 52.4638 20.8099 52.4747C31.1073 52.4856 39.4749 48.9469 39.4998 44.5614C39.4999 44.5352 39.4996 44.5086 39.4992 44.4823Z" fill="#ECAB25"/>
<mask id="mask2_46_215" style="mask-type:luminance" maskUnits="userSpaceOnUse" x="2" y="23" width="38" height="10">
<path d="M39.5 32.75V23.0547H2.17498L2.15576 32.75H39.4997H39.5Z" fill="white"/>
</mask>
<g mask="url(#mask2_46_215)">
<path fill-rule="evenodd" clip-rule="evenodd" d="M20.2383 18.7934C34.2014 19.1056 45.4327 22.4778 45.3236 26.3255C45.2147 30.1731 33.8071 33.0391 19.8438 32.7267C5.88051 32.4145 -5.35043 29.0423 -5.24152 25.1947C-5.13262 21.347 6.27504 18.4811 20.2382 18.7933" fill="#CF9427"/>
</g>
<mask id="mask3_46_215" style="mask-type:luminance" maskUnits="userSpaceOnUse" x="2" y="23" width="23" height="30">
<path d="M2.1751 23.0555L2.13245 44.4825H2.13292C2.13292 44.4955 2.13245 44.5084 2.13245 44.5216C2.15042 48.9069 10.5126 52.4637 20.8099 52.4745C22.122 52.4759 23.4028 52.4198 24.6389 52.3114V23.0555H2.1751Z" fill="white"/>
</mask>
<g mask="url(#mask3_46_215)">
<path fill-rule="evenodd" clip-rule="evenodd" d="M6.19609 28.2128C6.19609 28.2128 6.00703 35.6722 12.3713 40.7153C21.9222 48.2837 22.2952 65.6231 22.2952 65.6231L-11.3359 43.7102L-4.41266 23.0555L6.19609 28.2128Z" fill="#CF9427"/>
</g>
</g>
<mask id="mask4_46_215" style="mask-type:luminance" maskUnits="userSpaceOnUse" x="1" y="-5" width="39" height="45">
<path d="M37.8641 14.8917C38.6336 16.9294 39.0547 19.1383 39.0547 21.4453C39.0547 31.6928 30.7475 40 20.5 40C10.2525 40 1.94531 31.6928 1.94531 21.4453C1.94531 19.1383 2.36641 16.9295 3.13594 14.8917C3.12344 14.6039 3.11719 14.3145 3.11719 14.0234C3.11719 3.77594 10.8998 -4.53125 20.5 -4.53125C30.1003 -4.53125 37.8828 3.77594 37.8828 14.0234C37.8828 14.3145 37.8766 14.6039 37.8641 14.8917Z" fill="white"/>
</mask>
<g mask="url(#mask4_46_215)">
<path fill-rule="evenodd" clip-rule="evenodd" d="M20.525 14.9545C30.0974 14.9631 37.8458 16.6517 37.8353 18.7255C37.8255 20.7964 30.0705 22.4684 20.5164 22.4605C10.962 22.455 3.21126 20.7698 3.20532 18.6972C3.20001 16.6247 10.9539 14.948 20.525 14.9545Z" fill="#231F20"/>
<path fill-rule="evenodd" clip-rule="evenodd" d="M27.478 4.04672C27.478 4.04672 29.1805 3.98422 31.4389 3.95688C33.4805 3.93219 34.0717 5.48969 33.9542 6.4725C33.6706 8.8436 32.8573 9.28422 30.6578 11.488C29.3258 11.1614 28.1206 9.28063 27.5791 7.18219C27.2144 5.7675 27.478 4.04672 27.478 4.04672Z" fill="#AA712A"/>
<path fill-rule="evenodd" clip-rule="evenodd" d="M17.2298 3.96781C17.2298 3.96781 14.2828 2.86921 11.5598 2.16406C9.08873 1.52406 7.66436 3.64531 7.52295 4.80671C7.1492 7.87609 9.29701 9.52265 11.5142 10.6458C13.2189 10.6592 13.8423 9.44109 15.0886 7.20187C15.927 5.69406 17.2298 3.96796 17.2298 3.96796" fill="#B2762C"/>
<path fill-rule="evenodd" clip-rule="evenodd" d="M40.5194 18.868C40.5363 16.1216 31.5859 13.8883 20.5252 13.8802C9.46891 13.8724 0.513127 16.0922 0.522346 18.8367L0.522815 18.8509H0.522346V25.3669H0.522815C0.561877 27.9602 9.51891 30.0648 20.5147 30.0731C31.5144 30.0788 40.4741 27.9894 40.5191 25.3958H40.5194V18.8781H40.5191L40.5194 18.868Z" fill="#E9A824"/>
<mask id="mask5_46_215" style="mask-type:luminance" maskUnits="userSpaceOnUse" x="0" y="13" width="41" height="11">
<path d="M40.5194 23.775V18.8781H40.5191L40.5194 18.8678C40.5363 16.1216 31.586 13.8881 20.5252 13.88H20.4666C9.43644 13.8798 0.513154 16.0969 0.522373 18.8367L0.522842 18.8508H0.522217V23.775H40.5192H40.5194Z" fill="white"/>
</mask>
<g mask="url(#mask5_46_215)">
<path fill-rule="evenodd" clip-rule="evenodd" d="M20.5237 13.8397C31.5914 13.8478 40.5472 16.0827 40.5305 18.8306C40.5098 21.5713 31.5492 23.7833 20.5133 23.775C9.47781 23.7672 0.521399 21.5422 0.50843 18.7994C0.499055 16.0533 9.46062 13.8319 20.5237 13.8397Z" fill="#FFD04B"/>
</g>
<mask id="mask6_46_215" style="mask-type:luminance" maskUnits="userSpaceOnUse" x="3" y="0" width="35" height="23">
<path d="M29.4308 1.94159e-06C39.0029 0.00859569 37.8458 16.6517 37.8354 18.7255C37.8254 20.7964 30.0704 22.4684 20.5164 22.4605C10.962 22.455 3.21122 20.7698 3.20528 18.6972C3.19997 16.6247 1.61981 -0.00656056 11.1909 1.94159e-06H29.4308Z" fill="white"/>
</mask>
<g mask="url(#mask6_46_215)">
<path fill-rule="evenodd" clip-rule="evenodd" d="M20.525 14.9545C30.0974 14.9631 37.8458 16.6517 37.8353 18.7255C37.8255 20.7964 30.0705 22.4684 20.5164 22.4605C10.962 22.455 3.21126 20.7698 3.20532 18.6972C3.20001 16.6247 10.9539 14.948 20.525 14.9545Z" fill="#5C401B"/>
</g>
<mask id="mask7_46_215" style="mask-type:luminance" maskUnits="userSpaceOnUse" x="3" y="0" width="35" height="23">
<path d="M29.4308 1.94159e-06C39.0029 0.00859569 37.8458 16.6517 37.8354 18.7255C37.8254 20.7964 30.0704 22.4684 20.5164 22.4605C10.962 22.455 3.21122 20.7698 3.20528 18.6972C3.19997 16.6247 1.61981 -0.00656056 11.1909 1.94159e-06H29.4308Z" fill="white"/>
</mask>
<g mask="url(#mask7_46_215)">
<path fill-rule="evenodd" clip-rule="evenodd" d="M34.4363 21.5705C34.0136 19.7058 33.9417 18.0536 33.8713 15.7892C34.4598 9.54 32.7189 2.77594 28.0461 2.11156C26.2467 1.85578 23.8022 1.00031 21.6492 1.18203C16.6853 1.60141 11.9153 3.07813 9.89609 9.28485C8.9125 11.9555 8.26297 14.702 7.85703 17.2638C7.30188 20.7722 3.10547 27.2202 2.77453 28.2116C2.51781 28.9806 36.1844 30.4136 36.1333 29.8763C36.0122 28.5997 34.8844 23.5475 34.4363 21.5705Z" fill="#D48C36"/>
</g>
<mask id="mask8_46_215" style="mask-type:luminance" maskUnits="userSpaceOnUse" x="3" y="0" width="35" height="23">
<path d="M29.4308 1.94159e-06C39.0029 0.00859569 37.8458 16.6517 37.8354 18.7255C37.8254 20.7964 30.0704 22.4684 20.5164 22.4605C10.962 22.455 3.21122 20.7698 3.20528 18.6972C3.19997 16.6247 1.61981 -0.00656056 11.1909 1.94159e-06H29.4308Z" fill="white"/>
</mask>
<g mask="url(#mask8_46_215)">
<mask id="mask9_46_215" style="mask-type:luminance" maskUnits="userSpaceOnUse" x="6" y="1" width="29" height="22">
<path d="M21.6492 1.18203C16.6853 1.60125 11.9153 3.07813 9.89606 9.28469C8.91231 11.9553 8.26294 14.7019 7.857 17.2636C7.69278 18.3014 7.20981 19.5964 6.60278 20.9314C9.75747 21.8559 14.8161 22.457 20.5164 22.4605C26.1453 22.4652 31.15 21.8867 34.3139 20.987C33.9984 19.3508 33.9342 17.8148 33.8712 15.7892C34.4598 9.54 32.7189 2.77578 28.0461 2.11156C26.4172 1.88 24.2593 1.15688 22.2679 1.15688C22.0595 1.15688 21.8531 1.16469 21.6492 1.18203Z" fill="white"/>
</mask>
<g mask="url(#mask9_46_215)">
<path fill-rule="evenodd" clip-rule="evenodd" d="M46.0635 22.383C46.0635 22.383 33.0521 29.1736 23.9162 25.957C16.4787 23.3383 11.0731 16.7505 11.6837 10.8294C12.1875 5.94141 14.1968 3.05141 18.1168 1.3975C21.9556 -0.222029 8.53167 -0.419373 8.53167 -0.419373L3.8348 4.63641L0.536987 29.7616L30.7714 45.292L46.0635 22.383Z" fill="#C3822E"/>
</g>
</g>
<mask id="mask10_46_215" style="mask-type:luminance" maskUnits="userSpaceOnUse" x="3" y="0" width="35" height="23">
<path d="M29.4308 1.94159e-06C39.0029 0.00859569 37.8458 16.6517 37.8354 18.7255C37.8254 20.7964 30.0704 22.4684 20.5164 22.4605C10.962 22.455 3.21122 20.7698 3.20528 18.6972C3.19997 16.6247 1.61981 -0.00656056 11.1909 1.94159e-06H29.4308Z" fill="white"/>
</mask>
<g mask="url(#mask10_46_215)">
<path fill-rule="evenodd" clip-rule="evenodd" d="M30.1343 11.1537C30.0322 12.5303 31.3593 16.3855 30.6333 17.7366C29.9702 18.9703 27.3913 19.1377 26.211 17.8731C25.0278 16.6055 25.1377 13.3394 24.9944 11.3986C24.8183 9.01578 30.2761 9.24125 30.1343 11.1537Z" fill="#C07F30"/>
<path fill-rule="evenodd" clip-rule="evenodd" d="M29.995 0.158437C28.6081 -0.130313 27.6433 0.484062 26.9863 0.986875C25.9367 1.79 25.2352 2.39141 25.0236 3.02016C24.8267 3.60563 24.4274 5.94 24.3686 7.10266C24.2867 8.71859 24.663 9.94281 25.0481 11.8642C25.2863 13.0523 25.4794 15.7669 26.8097 16.6908C28.1371 17.6125 30.6816 17.2794 31.2139 16.223C31.7967 15.0661 30.6416 11.9209 30.5771 11.0156C30.4875 9.75781 32.2161 9.17906 32.868 6.27438C33.055 5.44109 33.1477 4.64719 33.1347 3.91063C33.1125 2.66547 32.7503 1.63125 32.2863 1.17141C31.6058 0.497187 30.8566 0.337969 29.995 0.158437Z" fill="#FDCB83"/>
<path fill-rule="evenodd" clip-rule="evenodd" d="M30.6431 2.84032C30.1703 2.72891 29.4384 2.37797 28.9732 1.67985C28.5956 1.11266 27.7771 0.0337533 29.3701 0.0528158C30.485 0.0675033 31.0443 0.206097 31.8462 0.639066C32.4239 0.95016 32.5404 1.23813 32.3707 1.71094C32.0598 2.57094 31.1595 2.9625 30.6431 2.84032ZM30.8134 15.3025C30.6581 15.922 29.1229 16.2463 28.3834 16.0941C27.2648 15.8636 26.0656 15.6384 25.7595 12.9433C25.4429 10.1545 25.4145 8.88547 26.3551 6.84313C26.9151 5.62079 27.1807 4.1486 30.0457 4.68797C34.3303 5.49329 31.2218 8.43454 30.4514 9.6375C29.9478 10.4256 29.8736 10.6947 30.0453 11.4064C30.2254 12.1567 31.0646 14.2998 30.8134 15.3025Z" fill="#231F20"/>
<path fill-rule="evenodd" clip-rule="evenodd" d="M27.2357 5.7861C27.1552 5.91595 27.229 7.33423 27.412 7.78486C27.7354 8.57079 28.2246 6.25985 28.5645 6.16954C28.9034 6.08032 30.7301 6.3822 31.0982 6.6197C31.4573 6.86861 31.0666 8.39157 31.4302 8.46595C31.7937 8.54017 32.2173 6.81204 32.0718 6.30673C31.9101 5.74423 31.236 5.41579 30.2898 5.21236C29.3623 5.01282 27.841 4.80845 27.2357 5.7861Z" fill="#FEEDDA"/>
<path fill-rule="evenodd" clip-rule="evenodd" d="M26.9218 13.0903C27.2581 14.4283 27.9817 14.9522 28.7015 14.7622C29.4221 14.572 29.9181 13.3434 29.5818 12.0055C29.2456 10.6673 28.136 10.2722 26.8154 10.4845C26.4348 10.5458 26.012 10.9752 26.0076 11.4138C26.002 11.9917 26.6792 12.1245 26.9218 13.0903Z" fill="#630716"/>
<path fill-rule="evenodd" clip-rule="evenodd" d="M30.7647 12.6308C30.9627 12.7434 30.8189 14.5158 30.4585 14.7911C30.0972 15.065 29.7263 15.1952 28.7014 15.1322C27.647 15.0658 27.1967 14.8164 26.902 14.54C26.6719 14.3213 26.7335 12.3117 27.0752 12.2814C27.416 12.2511 27.8408 13.935 27.8408 13.935C27.8408 13.935 29.4236 14.1342 29.9983 13.9636C30.2764 13.4573 30.5283 12.4955 30.7647 12.6308Z" fill="#FEEDDA"/>
<path fill-rule="evenodd" clip-rule="evenodd" d="M23.3034 3.93595C22.6169 3.96016 21.8366 4.03532 21.781 3.93548C21.593 3.59876 22.2298 2.79938 22.8787 2.63173C23.7351 2.41032 24.5284 3.16391 24.4698 3.59157C24.429 3.88813 23.8851 3.91563 23.3034 3.93595Z" fill="#BD7E2F"/>
<path fill-rule="evenodd" clip-rule="evenodd" d="M22.3661 3.70626C22.2951 4.22219 22.6708 4.54923 23.3583 4.52454C23.9436 4.50282 24.2129 4.32141 24.2328 3.79891C24.2467 3.43219 23.8953 2.99954 23.2892 2.96501C22.7372 2.93344 22.4179 3.32704 22.3661 3.70626Z" fill="#231F20"/>
<path opacity="0.762" fill-rule="evenodd" clip-rule="evenodd" d="M23.5127 3.20875C23.6194 3.23328 23.6878 3.34953 23.6658 3.46859C23.6436 3.58765 23.5392 3.66437 23.4325 3.63984C23.3258 3.61531 23.2574 3.49906 23.2794 3.38C23.3016 3.26093 23.406 3.18421 23.5127 3.20875Z" fill="#FEFEFE"/>
</g>
</g>
</g>
<defs>
<clipPath id="clip0_46_215">
<rect width="40" height="40" fill="white" transform="translate(0.5)"/>
</clipPath>
</defs>
</svg>
