<svg width="43" height="36" viewBox="0 0 43 36" fill="none" xmlns="http://www.w3.org/2000/svg">
<g clip-path="url(#clip0_246_455)">
<path d="M43 5.14322C41.3898 5.85776 39.6819 6.32672 37.9331 6.5345C39.7547 5.44099 41.1534 3.70938 41.812 1.64618C40.0803 2.67535 38.1857 3.40049 36.21 3.7903C34.6007 2.07315 32.3081 1 29.7706 1C24.8985 1 20.9484 4.95614 20.9484 9.83555C20.9484 10.5282 21.0265 11.2024 21.1768 11.8493C13.845 11.4807 7.3446 7.96312 2.99337 2.61738C2.23415 3.92236 1.79911 5.44032 1.79911 7.05938C1.79911 10.1249 3.35669 12.8292 5.7237 14.4138C4.32275 14.3699 2.95261 13.991 1.72773 13.3085C1.72728 13.3455 1.72711 13.3826 1.72722 13.4197C1.72722 17.7007 4.76813 21.272 8.80375 22.0837C7.50465 22.4375 6.142 22.4893 4.81986 22.2351C5.9424 25.7454 9.20049 28.2999 13.0607 28.3714C10.0415 30.7411 6.23752 32.1537 2.10448 32.1537C1.39229 32.1537 0.690184 32.1118 0 32.0302C3.9041 34.5372 8.54121 36 13.5232 36C29.7501 36 38.6234 22.5362 38.6234 10.8602C38.6234 10.477 38.6149 10.096 38.5979 9.71711C40.3249 8.46648 41.8155 6.91764 43 5.14322Z" fill="#55ACEE"/>
</g>
<defs>
<clipPath id="clip0_246_455">
<rect width="42.88" height="35" fill="white" transform="translate(0 0.5)"/>
</clipPath>
</defs>
</svg>
