<svg width="20" height="20" viewBox="0 0 20 20" fill="none" xmlns="http://www.w3.org/2000/svg">
<path d="M12.75 12.75C12.75 13.1147 12.8949 13.4644 13.1527 13.7223C13.4106 13.9801 13.7603 14.125 14.125 14.125C14.4897 14.125 14.8394 13.9801 15.0973 13.7223C15.3551 13.4644 15.5 13.1147 15.5 12.75C15.5 12.3853 15.3551 12.0356 15.0973 11.7777C14.8394 11.5199 14.4897 11.375 14.125 11.375C13.7603 11.375 13.4106 11.5199 13.1527 11.7777C12.8949 12.0356 12.75 12.3853 12.75 12.75Z" stroke="black" stroke-width="1.5625" stroke-linecap="round" stroke-linejoin="round"/>
<path d="M1.75 10V4.5C3.67958 5.06925 7.778 5.80808 12.7537 6.15275C15.4313 6.33792 16.7705 6.4305 17.5103 7.22892C18.25 8.02642 18.25 9.3125 18.25 11.8838V13.729C18.25 16.3773 18.25 17.7009 17.348 18.525C16.4469 19.3491 15.2177 19.229 12.7601 18.9888C12.1445 18.9286 11.53 18.8583 10.9167 18.778" stroke="black" stroke-width="1.5625" stroke-linecap="round" stroke-linejoin="round"/>
<path d="M15.1572 6.33334C15.5027 5.02892 15.8172 2.65567 14.8831 1.47775C14.2918 0.730669 13.4118 0.803085 12.5502 0.878252C8.01817 1.277 4.81625 2.08642 3.02692 2.63642C2.25692 2.87292 1.75 3.62459 1.75 4.46334M9.08333 15.5H5.41667M5.41667 15.5H1.75M5.41667 15.5V19.1667M5.41667 15.5V11.8333" stroke="black" stroke-width="1.5625" stroke-linecap="round" stroke-linejoin="round"/>
</svg>
