<svg width="18" height="19" viewBox="0 0 18 19" fill="none" xmlns="http://www.w3.org/2000/svg">
<path d="M11.5217 1.8242C11.4864 1.79584 11.4457 1.77476 11.4022 1.76216C11.3586 1.74957 11.313 1.74572 11.268 1.75083C11.2229 1.75595 11.1793 1.76992 11.1397 1.79195C11.1001 1.81398 11.0652 1.84364 11.0371 1.8792L7.8725 5.87495H6.11869L9.95975 1.02533C10.1003 0.847789 10.2746 0.699781 10.4726 0.589809C10.6705 0.479837 10.8883 0.410069 11.1133 0.384514C11.3383 0.358959 11.5661 0.378122 11.7837 0.4409C12.0013 0.503678 12.2043 0.608835 12.3811 0.750327L15.9197 3.58489C16.2543 3.85298 16.4766 4.23644 16.543 4.66C16.6094 5.08357 16.5151 5.51665 16.2786 5.87426H14.4814L15.105 5.15101C15.1352 5.11603 15.158 5.07532 15.1721 5.03132C15.1862 4.98731 15.1913 4.94092 15.1871 4.8949C15.1828 4.84889 15.1694 4.8042 15.1475 4.76351C15.1256 4.72282 15.0957 4.68696 15.0596 4.65808L13.3381 3.27895L11.2976 5.87495H9.54862L12.2642 2.41958L11.5217 1.8242ZM2.125 3.81245C1.57799 3.81245 1.05339 4.02975 0.666592 4.41654C0.279799 4.80334 0.0625 5.32794 0.0625 5.87495V15.8437C0.0625 16.6642 0.388448 17.4511 0.968638 18.0313C1.54883 18.6115 2.33574 18.9375 3.15625 18.9375H14.8438C15.6643 18.9375 16.4512 18.6115 17.0314 18.0313C17.6116 17.4511 17.9375 16.6642 17.9375 15.8437V9.6562C17.9375 8.83569 17.6116 8.04878 17.0314 7.46859C16.4512 6.8884 15.6643 6.56245 14.8438 6.56245H2.125C1.94266 6.56245 1.7678 6.49002 1.63886 6.36109C1.50993 6.23216 1.4375 6.05729 1.4375 5.87495C1.4375 5.69262 1.50993 5.51775 1.63886 5.38882C1.7678 5.25989 1.94266 5.18745 2.125 5.18745H5.27375L6.371 3.81245H2.125ZM12.4375 12.0625H14.5C14.6823 12.0625 14.8572 12.1349 14.9861 12.2638C15.1151 12.3927 15.1875 12.5676 15.1875 12.75C15.1875 12.9323 15.1151 13.1072 14.9861 13.2361C14.8572 13.365 14.6823 13.4375 14.5 13.4375H12.4375C12.2552 13.4375 12.0803 13.365 11.9514 13.2361C11.8224 13.1072 11.75 12.9323 11.75 12.75C11.75 12.5676 11.8224 12.3927 11.9514 12.2638C12.0803 12.1349 12.2552 12.0625 12.4375 12.0625Z" fill="black"/>
</svg>
