<svg width="21" height="21" viewBox="0 0 21 21" fill="none" xmlns="http://www.w3.org/2000/svg">
<g clip-path="url(#clip0_76_499)">
<path d="M0.92506 10.3803C0.924595 12.0607 1.36366 13.7014 2.19855 15.1477L0.845215 20.0889L5.90196 18.763C7.30059 19.5244 8.86765 19.9233 10.4601 19.9235H10.4643C15.7213 19.9235 20.0006 15.6457 20.0028 10.3878C20.0038 7.83998 19.0125 5.44416 17.2114 3.64168C15.4106 1.83936 13.0157 0.846256 10.4639 0.845093C5.2063 0.845093 0.927308 5.12261 0.925137 10.3803" fill="url(#paint0_linear_76_499)"/>
<path d="M0.584411 10.3772C0.583868 12.1181 1.03867 13.8175 1.90333 15.3155L0.501465 20.4339L5.73953 19.0605C7.18278 19.8474 8.80774 20.2622 10.4612 20.2629H10.4655C15.9111 20.2629 20.3441 15.8312 20.3464 10.3851C20.3474 7.74574 19.3204 5.2638 17.455 3.39674C15.5893 1.52992 13.1087 0.501085 10.4655 0.5C5.01898 0.5 0.586581 4.93101 0.584411 10.3772ZM3.70387 15.0575L3.50829 14.7471C2.68612 13.4398 2.25216 11.9291 2.25278 10.3778C2.25449 5.85109 5.93852 2.16822 10.4686 2.16822C12.6624 2.16915 14.7241 3.02434 16.2748 4.57597C17.8254 6.12775 18.6787 8.19054 18.6781 10.3845C18.6761 14.9112 14.992 18.5946 10.4655 18.5946H10.4622C8.98836 18.5938 7.54286 18.198 6.28224 17.45L5.98224 17.2721L2.87387 18.0871L3.70387 15.0575Z" fill="url(#paint1_linear_76_499)"/>
<path d="M7.99599 6.24789C7.81103 5.8368 7.61637 5.82851 7.44048 5.8213C7.29645 5.81509 7.1318 5.81556 6.9673 5.81556C6.80265 5.81556 6.53513 5.8775 6.30901 6.1244C6.08265 6.37153 5.44482 6.96874 5.44482 8.18339C5.44482 9.39804 6.32955 10.572 6.45289 10.7369C6.57637 10.9015 8.16087 13.4739 10.6703 14.4635C12.7559 15.2859 13.1803 15.1223 13.633 15.0811C14.0857 15.04 15.0937 14.484 15.2994 13.9075C15.5052 13.3311 15.5052 12.837 15.4435 12.7337C15.3818 12.6308 15.2171 12.569 14.9703 12.4456C14.7234 12.3222 13.5095 11.7249 13.2832 11.6425C13.0568 11.5601 12.8923 11.519 12.7276 11.7663C12.563 12.0131 12.0902 12.569 11.9461 12.7337C11.8021 12.8987 11.658 12.9193 11.4112 12.7958C11.1641 12.6719 10.369 12.4115 9.42568 11.5705C8.69172 10.9161 8.19622 10.108 8.05219 9.86075C7.90816 9.61393 8.03676 9.48013 8.16056 9.35711C8.27149 9.24649 8.40754 9.06882 8.5311 8.92471C8.6542 8.78052 8.69529 8.67765 8.77761 8.513C8.86002 8.3482 8.81878 8.20401 8.75715 8.08052C8.69529 7.95703 8.21552 6.73603 7.99599 6.24789Z" fill="white"/>
</g>
<defs>
<linearGradient id="paint0_linear_76_499" x1="958.725" y1="1925.23" x2="958.725" y2="0.845093" gradientUnits="userSpaceOnUse">
<stop stop-color="#1FAF38"/>
<stop offset="1" stop-color="#60D669"/>
</linearGradient>
<linearGradient id="paint1_linear_76_499" x1="992.75" y1="1993.89" x2="992.75" y2="0.5" gradientUnits="userSpaceOnUse">
<stop stop-color="#F9F9F9"/>
<stop offset="1" stop-color="white"/>
</linearGradient>
<clipPath id="clip0_76_499">
<rect width="19.848" height="20" fill="white" transform="translate(0.5 0.5)"/>
</clipPath>
</defs>
</svg>
